<svg width="40" height="40" viewBox="0 0 40 40" fill="none" xmlns="http://www.w3.org/2000/svg">
<g id="user / user_circle">
<path id="coolicon" d="M20.0001 36.6667C17.4802 36.6737 14.9921 36.1036 12.7268 34.9999C11.8977 34.5967 11.1033 34.1256 10.3518 33.5916L10.1234 33.4249C8.05645 31.8993 6.36654 29.9203 5.18342 27.6399C3.95964 25.2797 3.32493 22.6585 3.33333 19.9999C3.33333 10.7952 10.7953 3.33325 20.0001 3.33325C29.2048 3.33325 36.6668 10.7952 36.6668 19.9999C36.6751 22.6572 36.041 25.2772 34.8184 27.6366C33.6369 29.9156 31.9494 31.894 29.8851 33.4199C29.1064 33.9899 28.28 34.4918 27.4151 34.9199L27.2818 34.9866C25.015 36.0961 22.5238 36.6708 20.0001 36.6667ZM20.0001 28.3332C17.5025 28.3284 15.2129 29.7233 14.0718 31.9449C17.8074 33.7952 22.1928 33.7952 25.9284 31.9449V31.9366C24.7859 29.7174 22.4961 28.3256 20.0001 28.3332ZM20.0001 24.9999C23.6103 25.0046 26.9391 26.9501 28.7151 30.0933L28.7401 30.0716L28.7634 30.0516L28.7351 30.0766L28.7184 30.0899C32.9334 26.4484 34.4406 20.5705 32.4978 15.3501C30.5551 10.1297 25.5719 6.66711 20.0018 6.66711C14.4316 6.66711 9.44841 10.1297 7.50567 15.3501C5.56293 20.5705 7.07009 26.4484 11.2851 30.0899C13.0622 26.9483 16.3907 25.0043 20.0001 24.9999ZM20.0001 23.3333C16.3182 23.3333 13.3334 20.3485 13.3334 16.6666C13.3334 12.9847 16.3182 9.99992 20.0001 9.99992C23.682 9.99992 26.6668 12.9847 26.6668 16.6666C26.6668 18.4347 25.9644 20.1304 24.7141 21.3806C23.4639 22.6309 21.7682 23.3333 20.0001 23.3333ZM20.0001 13.3333C18.1591 13.3333 16.6668 14.8256 16.6668 16.6666C16.6668 18.5075 18.1591 19.9999 20.0001 19.9999C21.841 19.9999 23.3334 18.5075 23.3334 16.6666C23.3334 14.8256 21.841 13.3333 20.0001 13.3333Z" fill="#2E3A59"/>
</g>
</svg>
