<svg width="50" height="50" viewBox="0 0 50 50" fill="none" xmlns="http://www.w3.org/2000/svg">
<path d="M41.6667 41.6666H8.33335C6.10526 41.7333 4.24255 39.9861 4.16669 37.7583V12.2395C4.24255 10.012 6.10561 8.26542 8.33335 8.33327H41.6667C43.8944 8.26542 45.7575 10.012 45.8334 12.2395V37.7604C45.7564 39.9873 43.894 41.7333 41.6667 41.6666ZM8.33335 12.4999V37.477L41.6667 37.4999V12.5229L8.33335 12.4999ZM27.9792 33.3333H12.5C12.6532 31.6084 13.4695 30.0102 14.7771 28.8749C16.233 27.4306 18.1892 26.6025 20.2396 26.5624C22.29 26.6025 24.2462 27.4306 25.7021 28.8749C27.0094 30.0105 27.8256 31.6085 27.9792 33.3333ZM37.5 31.2499H31.25V27.0833H37.5V31.2499ZM20.2396 24.9999C19.1231 25.0387 18.0406 24.6122 17.2506 23.8223C16.4607 23.0323 16.0341 21.9498 16.0729 20.8333C16.0348 19.7169 16.4615 18.6348 17.2513 17.845C18.0411 17.0551 19.1233 16.6284 20.2396 16.6666C21.3559 16.6284 22.4381 17.0551 23.2279 17.845C24.0177 18.6348 24.4444 19.7169 24.4063 20.8333C24.4451 21.9498 24.0186 23.0323 23.2286 23.8223C22.4386 24.6122 21.3561 25.0387 20.2396 24.9999ZM37.5 22.9166H29.1667V18.7499H37.5V22.9166Z" fill="#2E3A59"/>
</svg>
