<svg width="50" height="50" viewBox="0 0 50 50" fill="none" xmlns="http://www.w3.org/2000/svg">
<path d="M18.75 6.25C12.9971 6.25 8.33335 10.9137 8.33335 16.6667C8.33335 22.4196 12.9971 27.0833 18.75 27.0833C24.503 27.0833 29.1667 22.4196 29.1667 16.6667C29.1667 10.9137 24.503 6.25 18.75 6.25ZM12.5 16.6667C12.5 13.2149 15.2982 10.4167 18.75 10.4167C22.2018 10.4167 25 13.2149 25 16.6667C25 20.1184 22.2018 22.9167 18.75 22.9167C15.2982 22.9167 12.5 20.1184 12.5 16.6667Z" fill="#2E3A59"/>
<path d="M35.2259 17.1214C34.6398 16.8226 33.9912 16.6668 33.3334 16.6668V12.5001C34.6492 12.5001 35.9463 12.8116 37.1186 13.4093C37.2477 13.4751 37.3749 13.5442 37.5 13.6165C38.5113 14.2003 39.39 14.991 40.0777 15.9387C40.8506 17.0036 41.3603 18.2364 41.5651 19.5362C41.7699 20.836 41.664 22.1658 41.2561 23.4168C40.8482 24.6678 40.1498 25.8044 39.2182 26.7336C38.2865 27.6628 37.1481 28.3582 35.896 28.7628C34.7819 29.1229 33.6059 29.2437 32.4449 29.1192C32.3012 29.1038 32.1577 29.0846 32.0146 29.0617C30.7163 28.8536 29.4856 28.3412 28.4232 27.5664L28.421 27.5649L30.8772 24.1991C31.4086 24.5869 32.0244 24.8433 32.674 24.9474C33.3236 25.0515 33.9886 25.0003 34.6147 24.798C35.2407 24.5957 35.8099 24.248 36.2757 23.7834C36.7415 23.3188 37.0907 22.7505 37.2946 22.125C37.4986 21.4995 37.5515 20.8347 37.4491 20.1848C37.3467 19.5349 37.0919 18.9185 36.7054 18.3861C36.319 17.8536 35.812 17.4202 35.2259 17.1214Z" fill="#2E3A59"/>
<path d="M41.6627 43.75C41.6627 42.6562 41.4473 41.5731 41.0287 40.5625C40.6101 39.5519 39.9966 38.6337 39.2231 37.8602C38.4497 37.0868 37.5314 36.4732 36.5209 36.0547C35.5103 35.6361 34.4272 35.4206 33.3334 35.4206V31.25C34.7544 31.25 36.1633 31.4923 37.5 31.9649C37.7075 32.0382 37.9132 32.1171 38.1169 32.2015C39.6335 32.8297 41.0115 33.7504 42.1722 34.9112C43.3329 36.0719 44.2537 37.4499 44.8819 38.9665C44.9662 39.1702 45.0451 39.3759 45.1185 39.5833C45.5911 40.92 45.8334 42.329 45.8334 43.75H41.6627Z" fill="#2E3A59"/>
<path d="M33.3334 43.75H29.1667C29.1667 37.997 24.503 33.3333 18.75 33.3333C12.9971 33.3333 8.33335 37.997 8.33335 43.75H4.16669C4.16669 35.6958 10.6959 29.1667 18.75 29.1667C26.8042 29.1667 33.3334 35.6958 33.3334 43.75Z" fill="#2E3A59"/>
</svg>
