<svg width="50" height="50" viewBox="0 0 50 50" fill="none" xmlns="http://www.w3.org/2000/svg">
<path d="M25 45.8334C21.8501 45.8422 18.74 45.1295 15.9083 43.75C14.872 43.2459 13.879 42.6571 12.9396 41.9895L12.6542 41.7812C10.0704 39.8742 7.95805 37.4004 6.47915 34.55C4.94943 31.5997 4.15604 28.3232 4.16655 25C4.16655 13.494 13.4941 4.16663 25 4.16663C36.5059 4.16663 45.8334 13.494 45.8334 25C45.8438 28.3216 45.0512 31.5966 43.5229 34.5458C42.0461 37.3946 39.9366 39.8675 37.3562 41.775C36.3828 42.4875 35.3498 43.1148 34.2687 43.65L34.1021 43.7333C31.2686 45.1202 28.1547 45.8386 25 45.8334ZM25 35.4166C21.8781 35.4105 19.0159 37.1542 17.5896 39.9312C22.2591 42.2441 27.7408 42.2441 32.4104 39.9312V39.9208C30.9823 37.1468 28.12 35.4071 25 35.4166ZM25 31.25C29.5127 31.2558 33.6738 33.6877 35.8937 37.6166L35.925 37.5895L35.9542 37.5645L35.9187 37.5958L35.8979 37.6125C41.1666 33.0606 43.0506 25.7132 40.6222 19.1877C38.1938 12.6622 31.9648 8.33395 25.0021 8.33395C18.0394 8.33395 11.8104 12.6622 9.38197 19.1877C6.95354 25.7132 8.83749 33.0606 14.1062 37.6125C16.3276 33.6855 20.4882 31.2554 25 31.25ZM25 29.1666C20.3976 29.1666 16.6667 25.4357 16.6667 20.8333C16.6667 16.2309 20.3976 12.5 25 12.5C29.6024 12.5 33.3333 16.2309 33.3333 20.8333C33.3333 23.0434 32.4553 25.163 30.8925 26.7258C29.3297 28.2887 27.2101 29.1666 25 29.1666ZM25 16.6666C22.6988 16.6666 20.8333 18.5321 20.8333 20.8333C20.8333 23.1345 22.6988 25 25 25C27.3012 25 29.1667 23.1345 29.1667 20.8333C29.1667 18.5321 27.3012 16.6666 25 16.6666Z" fill="#2E3A59"/>
</svg>
