<svg width="50" height="50" viewBox="0 0 50 50" fill="none" xmlns="http://www.w3.org/2000/svg">
<path d="M39.5833 45.8334H10.4166C9.26605 45.8334 8.33331 44.9006 8.33331 43.75V23.6605C8.36559 23.1499 8.58256 22.6686 8.94373 22.3063L23.5271 7.72295C23.9178 7.33175 24.4481 7.11194 25.001 7.11194C25.554 7.11194 26.0842 7.33175 26.475 7.72295L41.0583 22.3063C41.4494 22.6965 41.6685 23.2267 41.6666 23.7792V43.75C41.6666 44.9006 40.7339 45.8334 39.5833 45.8334ZM25 12.1417L12.5 24.6417V41.6667H37.5V24.6417L25 12.1417ZM25 37.498C24.5666 37.1125 24.0771 36.7105 23.5583 36.2854L23.4604 36.2063C21.05 34.2396 18.0437 31.7917 18.0437 28.748C18.0441 27.7395 18.4505 26.7737 19.1714 26.0685C19.8923 25.3633 20.8668 24.9782 21.875 25C23.0671 24.9968 24.2039 25.5023 25 26.3896C25.7962 25.5026 26.933 24.9971 28.125 25C29.1321 24.9804 30.1048 25.3669 30.8239 26.0723C31.543 26.7777 31.9481 27.7427 31.9479 28.75C31.9479 31.8042 28.9229 34.2688 26.4937 36.25L26.375 36.348C25.8812 36.7521 25.4146 37.1334 24.9979 37.5021L25 37.498Z" fill="#2E3A59"/>
</svg>
