<svg width="25" height="25" viewBox="0 0 25 25" fill="none" xmlns="http://www.w3.org/2000/svg">
<path d="M4.60416 21.4365C4.31195 21.436 4.0334 21.3128 3.83645 21.0969C3.63587 20.8828 3.53621 20.5933 3.56249 20.3011L3.8177 17.4948L15.6073 5.70941L19.2917 9.39274L7.5052 21.1771L4.69895 21.4323C4.66666 21.4355 4.63437 21.4365 4.60416 21.4365ZM20.0271 8.65628L16.3437 4.97295L18.5531 2.76358C18.7485 2.56797 19.0136 2.45807 19.2901 2.45807C19.5666 2.45807 19.8317 2.56797 20.0271 2.76358L22.2364 4.97295C22.4321 5.16833 22.542 5.43346 22.542 5.70993C22.542 5.9864 22.4321 6.25153 22.2364 6.44691L20.0281 8.65524L20.0271 8.65628Z" fill="#323232" fill-opacity="0.8"/>
</svg>
