<svg width="50" height="50" viewBox="0 0 50 50" fill="none" xmlns="http://www.w3.org/2000/svg">
<path d="M25.1063 45.7271C14.0127 45.7175 4.87247 37.0165 4.31707 25.9368C3.76167 14.8571 11.986 5.28561 23.023 4.16669V12.5834C16.7534 13.6429 12.2811 19.2442 12.6358 25.5928C12.9904 31.9413 18.0588 37.0097 24.4073 37.3643C30.7559 37.719 36.3572 33.2467 37.4167 26.9771H45.8334C44.7496 37.6157 35.7979 45.7128 25.1042 45.7271H25.1063ZM45.8355 22.8104H37.4188C36.5322 17.5723 32.428 13.4689 27.1896 12.5834V4.16669C37.0377 5.17498 44.824 12.9604 45.8334 22.8084L45.8355 22.8104Z" fill="#2E3A59"/>
</svg>
