<svg width="50" height="50" viewBox="0 0 50 50" fill="none" xmlns="http://www.w3.org/2000/svg">
<path d="M24.9997 35.4166C27.2913 35.4166 29.1663 33.5416 29.1663 31.25C29.1663 28.9583 27.2913 27.0833 24.9997 27.0833C22.708 27.0833 20.833 28.9583 20.833 31.25C20.833 33.5416 22.708 35.4166 24.9997 35.4166ZM37.4997 16.6666H35.4163V12.5C35.4163 6.74998 30.7497 2.08331 24.9997 2.08331C19.2497 2.08331 14.583 6.74998 14.583 12.5V16.6666H12.4997C10.208 16.6666 8.33301 18.5416 8.33301 20.8333V41.6666C8.33301 43.9583 10.208 45.8333 12.4997 45.8333H37.4997C39.7913 45.8333 41.6663 43.9583 41.6663 41.6666V20.8333C41.6663 18.5416 39.7913 16.6666 37.4997 16.6666ZM18.5413 12.5C18.5413 8.93748 21.4372 6.04165 24.9997 6.04165C28.5622 6.04165 31.458 8.93748 31.458 12.5V16.6666H18.5413V12.5ZM37.4997 41.6666H12.4997V20.8333H37.4997V41.6666Z" fill="#2E3A59"/>
</svg>
