<svg width="50" height="50" viewBox="0 0 50 50" fill="none" xmlns="http://www.w3.org/2000/svg">
<path d="M12.4999 20.8333C10.2083 20.8333 8.33325 22.7083 8.33325 25C8.33325 27.2916 10.2083 29.1666 12.4999 29.1666C14.7916 29.1666 16.6666 27.2916 16.6666 25C16.6666 22.7083 14.7916 20.8333 12.4999 20.8333ZM37.4999 20.8333C35.2082 20.8333 33.3332 22.7083 33.3332 25C33.3332 27.2916 35.2082 29.1666 37.4999 29.1666C39.7916 29.1666 41.6666 27.2916 41.6666 25C41.6666 22.7083 39.7916 20.8333 37.4999 20.8333ZM24.9999 20.8333C22.7083 20.8333 20.8333 22.7083 20.8333 25C20.8333 27.2916 22.7083 29.1666 24.9999 29.1666C27.2916 29.1666 29.1666 27.2916 29.1666 25C29.1666 22.7083 27.2916 20.8333 24.9999 20.8333Z" fill="#323232"/>
</svg>
