<svg width="50" height="50" viewBox="0 0 50 50" fill="none" xmlns="http://www.w3.org/2000/svg">
<path d="M35.4167 45.8333H14.5833C12.2821 45.8333 10.4167 43.9678 10.4167 41.6667V14.5833H6.25V10.4167H14.5833V8.33332C14.5833 6.03214 16.4488 4.16666 18.75 4.16666H31.25C33.5512 4.16666 35.4167 6.03214 35.4167 8.33332V10.4167H43.75V14.5833H39.5833V41.6667C39.5833 43.9678 37.7179 45.8333 35.4167 45.8333ZM14.5833 14.5833V41.6667H35.4167V14.5833H14.5833ZM18.75 8.33332V10.4167H31.25V8.33332H18.75ZM31.25 37.5H27.0833V18.75H31.25V37.5ZM22.9167 37.5H18.75V18.75H22.9167V37.5Z" fill="#323232" fill-opacity="0.8"/>
</svg>
