<svg width="810" height="584" viewBox="0 0 810 584" fill="none" xmlns="http://www.w3.org/2000/svg">
<g clip-path="url(#clip0)">
<path opacity="0.1" d="M470.624 102.938C418.696 101.134 369.199 84.3687 322.007 66.0302C274.815 47.6918 228.04 27.3697 177.328 17.6523C144.723 11.3954 107.435 10.5153 81.1691 27.9961C55.8876 44.8132 47.7215 73.8459 43.3289 100.783C40.0251 121.053 38.1085 142.382 47.1398 161.362C53.4266 174.532 64.5832 185.607 72.3019 198.225C99.1496 242.128 80.1698 296.271 51.0699 339.175C37.4224 359.311 21.5898 378.469 11.0595 399.88C0.529305 421.291 -4.34801 445.82 4.86967 467.656C14.0053 489.283 35.7668 505.556 59.348 516.988C107.241 540.189 163.673 546.826 218.703 550.63C340.517 558.96 462.987 555.35 585.121 551.741C630.322 550.398 675.724 549.049 720.187 542.046C744.879 538.16 770.377 532 788.305 517.13C811.059 498.247 816.704 466.283 801.453 442.605C775.874 402.901 705.152 393.034 687.269 350.421C677.432 326.967 687.537 300.835 701.841 279.081C732.515 232.418 783.943 191.476 786.65 138.131C788.514 101.491 763.792 64.8072 725.564 47.4681C685.501 29.2788 629.942 31.5758 600.387 61.6377C569.952 92.6094 516.466 104.527 470.624 102.938Z" fill="#27A4A8"/>
<path d="M180.662 540.711C180.662 540.711 139.645 509.702 131.896 470.258C128.754 453.692 120.326 438.591 107.875 427.22C101.919 421.871 95.4861 417.078 88.6567 412.901" stroke="#535461" stroke-width="2" stroke-miterlimit="10"/>
<path d="M83.6376 388.052C87.2322 392.915 88.858 413.52 88.858 413.52C88.858 413.52 69.6396 405.951 66.0375 401.096C64.3079 398.762 63.5762 395.837 64.0034 392.963C64.4307 390.09 65.9819 387.504 68.3158 385.774C70.6498 384.044 73.5752 383.313 76.4486 383.74C79.322 384.167 81.908 385.719 83.6376 388.052Z" fill="#27A4A8"/>
<path d="M118.107 404.221C118.48 410.254 108.658 428.436 108.658 428.436C108.658 428.436 96.629 411.626 96.2487 405.593C96.104 402.717 97.0986 399.899 99.0168 397.751C100.935 395.603 103.622 394.297 106.497 394.117C109.371 393.936 112.2 394.896 114.372 396.787C116.544 398.678 117.883 401.349 118.1 404.221H118.107Z" fill="#27A4A8"/>
<path d="M151.518 450.697C148.803 456.096 131.136 466.835 131.136 466.835C131.136 466.835 129.249 446.252 131.964 440.853C133.3 438.314 135.58 436.401 138.312 435.525C141.045 434.65 144.012 434.883 146.575 436.173C149.137 437.463 151.091 439.708 152.016 442.424C152.94 445.141 152.761 448.111 151.518 450.697Z" fill="#27A4A8"/>
<path d="M168.886 491.535C167.119 497.315 151.525 510.88 151.525 510.88C151.525 510.88 146.178 490.916 147.945 485.129C148.795 482.352 150.713 480.026 153.277 478.663C155.841 477.3 158.842 477.012 161.619 477.861C164.396 478.711 166.722 480.629 168.084 483.193C169.447 485.757 169.736 488.758 168.886 491.535Z" fill="#27A4A8"/>
<path d="M90.8792 443.053C96.8453 443.858 115.706 435.342 115.706 435.342C115.706 435.342 99.7911 422.156 93.7951 421.351C90.9173 420.964 88.0037 421.737 85.6953 423.498C83.387 425.26 81.8729 427.866 81.4862 430.744C81.0995 433.622 81.8719 436.535 83.6334 438.844C85.395 441.152 88.0013 442.666 90.8792 443.053Z" fill="#27A4A8"/>
<path d="M111.798 490.566C117.764 489.544 133.179 475.785 133.179 475.785C133.179 475.785 114.043 467.969 108.084 468.991C106.657 469.224 105.291 469.739 104.064 470.503C102.838 471.268 101.774 472.268 100.936 473.446C100.098 474.624 99.5008 475.956 99.1801 477.365C98.8593 478.775 98.821 480.234 99.0672 481.659C99.3134 483.083 99.8393 484.445 100.615 485.665C101.39 486.885 102.399 487.94 103.584 488.768C104.769 489.596 106.106 490.181 107.519 490.49C108.931 490.798 110.391 490.824 111.813 490.566H111.798Z" fill="#27A4A8"/>
<path d="M138.459 533.962C144.507 533.962 162.033 523.006 162.033 523.006C162.033 523.006 144.5 512.066 138.452 512.066C135.548 512.066 132.764 513.219 130.71 515.273C128.657 517.326 127.504 520.11 127.504 523.014C127.504 525.917 128.657 528.702 130.71 530.755C132.764 532.808 135.548 533.962 138.452 533.962H138.459Z" fill="#27A4A8"/>
<path d="M579.125 272.511C579.125 272.511 604.407 227.727 642.516 214.826C658.518 209.511 672.366 199.152 681.982 185.301C686.492 178.679 690.384 171.656 693.608 164.322" stroke="#535461" stroke-width="2" stroke-miterlimit="10"/>
<path d="M717.532 156.119C713.192 160.325 692.989 164.68 692.989 164.68C692.989 164.68 697.949 144.619 702.289 140.406C704.384 138.444 707.165 137.384 710.035 137.453C712.904 137.522 715.631 138.715 717.629 140.775C719.628 142.834 720.737 145.597 720.719 148.467C720.701 151.336 719.557 154.084 717.532 156.119Z" fill="#27A4A8"/>
<path d="M706.107 192.386C700.141 193.564 680.848 186.24 680.848 186.24C680.848 186.24 695.912 172.071 701.841 170.915C703.265 170.599 704.737 170.571 706.172 170.832C707.606 171.092 708.974 171.637 710.196 172.434C711.417 173.231 712.467 174.264 713.283 175.472C714.1 176.68 714.667 178.039 714.951 179.469C715.235 180.9 715.231 182.372 714.938 183.801C714.645 185.229 714.07 186.585 713.246 187.788C712.422 188.991 711.366 190.018 710.14 190.807C708.914 191.597 707.543 192.133 706.107 192.386Z" fill="#27A4A8"/>
<path d="M664.523 231.673C658.81 229.696 645.827 213.618 645.827 213.618C645.827 213.618 665.962 209.009 671.69 210.985C673.066 211.441 674.338 212.167 675.431 213.119C676.525 214.071 677.418 215.23 678.06 216.53C678.702 217.831 679.079 219.245 679.169 220.692C679.26 222.139 679.062 223.59 678.588 224.96C678.113 226.33 677.371 227.592 676.405 228.673C675.438 229.754 674.267 230.632 672.959 231.256C671.65 231.881 670.231 232.239 668.783 232.311C667.335 232.382 665.887 232.165 664.523 231.673Z" fill="#27A4A8"/>
<path d="M626.31 254.314C620.344 253.33 604.862 239.645 604.862 239.645C604.862 239.645 623.946 231.695 629.905 232.679C632.773 233.151 635.336 234.743 637.03 237.104C638.725 239.466 639.411 242.404 638.94 245.272C638.468 248.14 636.876 250.703 634.515 252.397C632.153 254.091 629.215 254.778 626.347 254.307L626.31 254.314Z" fill="#27A4A8"/>
<path d="M664.001 170.557C663.994 176.605 674.964 194.153 674.964 194.153C674.964 194.153 685.919 176.627 685.919 170.587C685.957 169.125 685.702 167.671 685.17 166.31C684.637 164.949 683.837 163.708 682.817 162.661C681.797 161.614 680.577 160.782 679.23 160.214C677.884 159.646 676.437 159.353 674.975 159.353C673.513 159.353 672.066 159.646 670.719 160.214C669.373 160.782 668.153 161.614 667.133 162.661C666.113 163.708 665.313 164.949 664.78 166.31C664.248 167.671 663.993 169.125 664.031 170.587L664.001 170.557Z" fill="#27A4A8"/>
<path d="M619.68 197.598C621.485 203.371 637.176 216.832 637.176 216.832C637.176 216.832 642.396 196.83 640.577 191.058C639.633 188.384 637.688 186.18 635.152 184.911C632.616 183.641 629.687 183.406 626.98 184.254C624.274 185.101 622.002 186.966 620.643 189.455C619.284 191.944 618.945 194.864 619.695 197.598H619.68Z" fill="#27A4A8"/>
<path d="M580.252 229.793C581.057 235.759 594.242 251.696 594.242 251.696C594.242 251.696 602.752 232.866 601.946 226.877C601.786 225.426 601.338 224.022 600.628 222.747C599.917 221.472 598.959 220.351 597.809 219.452C596.659 218.553 595.341 217.893 593.932 217.51C592.523 217.128 591.052 217.031 589.606 217.225C588.159 217.42 586.766 217.902 585.508 218.642C584.25 219.383 583.153 220.368 582.282 221.539C581.41 222.71 580.782 224.044 580.433 225.461C580.084 226.879 580.023 228.352 580.252 229.793Z" fill="#27A4A8"/>
<path opacity="0.25" d="M717.532 156.119C713.192 160.325 692.989 164.68 692.989 164.68C692.989 164.68 697.949 144.619 702.289 140.406C704.384 138.444 707.165 137.384 710.035 137.453C712.904 137.522 715.631 138.715 717.629 140.775C719.628 142.834 720.737 145.597 720.719 148.467C720.701 151.336 719.557 154.084 717.532 156.119Z" fill="black"/>
<path opacity="0.25" d="M706.107 192.386C700.141 193.564 680.848 186.24 680.848 186.24C680.848 186.24 695.912 172.071 701.841 170.915C703.265 170.599 704.737 170.571 706.172 170.832C707.606 171.092 708.974 171.637 710.196 172.434C711.417 173.231 712.467 174.264 713.283 175.472C714.1 176.68 714.667 178.039 714.951 179.469C715.235 180.9 715.231 182.372 714.938 183.801C714.645 185.229 714.07 186.585 713.246 187.788C712.422 188.991 711.366 190.018 710.14 190.807C708.914 191.597 707.543 192.133 706.107 192.386Z" fill="black"/>
<path opacity="0.25" d="M664.523 231.673C658.81 229.696 645.827 213.618 645.827 213.618C645.827 213.618 665.962 209.009 671.69 210.985C673.066 211.441 674.338 212.167 675.431 213.119C676.525 214.071 677.418 215.23 678.06 216.53C678.702 217.831 679.079 219.245 679.169 220.692C679.26 222.139 679.062 223.59 678.588 224.96C678.113 226.33 677.371 227.592 676.405 228.673C675.438 229.754 674.267 230.632 672.959 231.256C671.65 231.881 670.231 232.239 668.783 232.311C667.335 232.382 665.887 232.165 664.523 231.673Z" fill="black"/>
<path opacity="0.25" d="M626.31 254.314C620.344 253.33 604.862 239.645 604.862 239.645C604.862 239.645 623.946 231.695 629.905 232.679C632.773 233.151 635.336 234.743 637.03 237.104C638.725 239.466 639.411 242.404 638.94 245.272C638.468 248.14 636.876 250.703 634.515 252.397C632.153 254.091 629.215 254.778 626.347 254.307L626.31 254.314Z" fill="black"/>
<path opacity="0.25" d="M664.001 170.557C663.994 176.605 674.964 194.153 674.964 194.153C674.964 194.153 685.919 176.627 685.919 170.587C685.957 169.125 685.702 167.671 685.17 166.31C684.637 164.949 683.837 163.708 682.817 162.661C681.797 161.614 680.577 160.782 679.23 160.214C677.884 159.646 676.437 159.353 674.975 159.353C673.513 159.353 672.066 159.646 670.719 160.214C669.373 160.782 668.153 161.614 667.133 162.661C666.113 163.708 665.313 164.949 664.78 166.31C664.248 167.671 663.993 169.125 664.031 170.587L664.001 170.557Z" fill="black"/>
<path opacity="0.25" d="M619.68 197.598C621.485 203.371 637.176 216.832 637.176 216.832C637.176 216.832 642.396 196.83 640.577 191.058C639.633 188.384 637.688 186.18 635.152 184.911C632.616 183.641 629.687 183.406 626.98 184.254C624.274 185.101 622.002 186.966 620.643 189.455C619.284 191.944 618.945 194.864 619.695 197.598H619.68Z" fill="black"/>
<path opacity="0.25" d="M580.252 229.793C581.057 235.759 594.242 251.696 594.242 251.696C594.242 251.696 602.752 232.866 601.946 226.877C601.786 225.426 601.338 224.022 600.628 222.747C599.917 221.472 598.959 220.351 597.809 219.452C596.659 218.553 595.341 217.893 593.932 217.51C592.523 217.128 591.052 217.031 589.606 217.225C588.159 217.42 586.766 217.902 585.508 218.642C584.25 219.383 583.153 220.368 582.282 221.539C581.41 222.71 580.782 224.044 580.433 225.461C580.084 226.879 580.023 228.352 580.252 229.793Z" fill="black"/>
<path d="M580.58 271.623C580.58 271.623 585.546 220.434 615.123 193.213C627.599 181.869 636.061 166.787 639.242 150.227C640.689 142.355 641.411 134.367 641.397 126.363" stroke="#535461" stroke-width="2" stroke-miterlimit="10"/>
<path d="M659.937 109.091C657.699 114.699 640.964 126.87 640.964 126.87C640.964 126.87 637.37 106.518 639.629 100.91C640.717 98.2168 642.83 96.0664 645.504 94.9314C648.177 93.7965 651.192 93.77 653.885 94.8578C656.578 95.9457 658.728 98.0587 659.863 100.732C660.998 103.406 661.024 106.42 659.937 109.113V109.091Z" fill="#27A4A8"/>
<path d="M664.195 146.916C659.251 150.391 638.615 151.532 638.615 151.532C638.615 151.532 646.655 132.485 651.599 129.01C652.772 128.133 654.108 127.499 655.53 127.148C656.952 126.796 658.43 126.733 659.876 126.963C661.323 127.193 662.709 127.71 663.951 128.485C665.194 129.26 666.269 130.277 667.112 131.474C667.955 132.672 668.549 134.027 668.859 135.458C669.169 136.89 669.188 138.369 668.916 139.808C668.644 141.247 668.086 142.617 667.275 143.837C666.464 145.057 665.417 146.101 664.195 146.909V146.916Z" fill="#27A4A8"/>
<path d="M642.076 199.701C636.05 200.209 617.659 190.752 617.659 190.752C617.659 190.752 634.215 178.373 640.241 177.865C643.135 177.622 646.006 178.538 648.225 180.412C650.443 182.287 651.826 184.965 652.069 187.859C652.312 190.752 651.396 193.624 649.522 195.842C647.648 198.06 644.969 199.443 642.076 199.687V199.701Z" fill="#27A4A8"/>
<path d="M616.339 235.864C610.485 237.355 590.767 231.188 590.767 231.188C590.767 231.188 604.988 216.19 610.843 214.669C613.653 213.94 616.638 214.358 619.141 215.83C621.644 217.302 623.459 219.708 624.188 222.518C624.917 225.329 624.5 228.314 623.028 230.817C621.555 233.319 619.15 235.135 616.339 235.864Z" fill="#27A4A8"/>
<path d="M616.861 144.023C619.308 149.549 636.415 161.175 636.415 161.175C636.415 161.175 639.324 140.711 636.878 135.185C635.659 132.6 633.477 130.593 630.799 129.595C628.12 128.597 625.158 128.686 622.544 129.843C619.93 131 617.873 133.133 616.811 135.787C615.749 138.44 615.767 141.404 616.861 144.045V144.023Z" fill="#27A4A8"/>
<path d="M587.299 186.695C591.289 191.237 611.081 197.188 611.081 197.188C611.081 197.188 607.74 176.791 603.75 172.25C602.809 171.146 601.657 170.241 600.362 169.587C599.068 168.932 597.656 168.542 596.209 168.438C594.762 168.334 593.309 168.518 591.934 168.98C590.559 169.443 589.29 170.174 588.2 171.131C587.11 172.088 586.221 173.252 585.585 174.556C584.949 175.859 584.578 177.276 584.494 178.724C584.41 180.173 584.615 181.623 585.096 182.991C585.578 184.36 586.327 185.619 587.299 186.695Z" fill="#27A4A8"/>
<path d="M564.262 232.127C567.424 237.273 585.927 246.483 585.927 246.483C585.927 246.483 586.083 225.818 582.944 220.665C581.381 218.286 578.952 216.609 576.174 215.99C573.395 215.371 570.484 215.858 568.059 217.349C565.634 218.84 563.885 221.217 563.183 223.976C562.481 226.735 562.882 229.659 564.299 232.127H564.262Z" fill="#27A4A8"/>
<path d="M542.545 71.1536C543.783 66.6119 545.275 62.0478 546.319 57.4464C545.066 62.0478 543.567 66.6268 542.545 71.1536Z" fill="url(#paint0_linear)"/>
<path d="M536.997 114.9C536.892 114.721 536.818 114.542 536.736 114.378C536.736 114.304 536.661 114.244 536.631 114.169C536.469 114.246 536.302 114.313 536.132 114.371C535.804 114.498 535.468 114.617 535.125 114.714C534.782 114.811 534.64 114.863 534.379 114.923C534.163 114.997 533.941 115.055 533.715 115.094L533.775 115.228C534.051 115.169 534.32 115.117 534.595 115.042L534.67 115.967C534.983 115.967 535.274 115.922 535.558 115.922C535.692 115.915 535.826 115.915 535.96 115.922C536.542 115.922 537.049 115.922 537.452 115.922C537.295 115.586 537.131 115.236 536.997 114.9ZM688.388 355.88C684.882 351.159 677.887 300.492 677.887 300.492C677.887 300.492 664.128 264.464 667.879 250.086C671.63 235.707 657.632 198.918 657.632 198.918C657.632 198.918 648.385 194.899 647.885 188.933C647.885 188.933 610.127 177 608.359 168.051C606.927 160.713 583.51 155.448 575.098 153.785C572.533 143.433 569.952 133.776 568.051 128.503C567.536 126.862 567.051 125.445 566.604 124.327C563.39 116.123 553.456 115.378 546.252 116.034C545.94 114.636 545.36 113.311 544.544 112.134C544.425 111.729 544.189 111.368 543.865 111.097C543.711 110.965 543.546 110.845 543.373 110.739C543.243 110.497 543.071 110.28 542.866 110.098C542.661 109.913 542.436 109.753 542.195 109.62C542.021 109.527 541.842 109.444 541.658 109.374C541.226 109.21 540.779 109.087 540.323 109.009C539.792 108.9 539.253 108.83 538.712 108.8C540.028 108.224 541.202 107.366 542.15 106.287C542.795 105.529 543.275 104.645 543.56 103.691C543.796 102.898 543.902 102.072 543.873 101.245C543.679 101.586 543.455 101.908 543.202 102.207C543.515 98.9036 541.77 95.5477 540.77 92.2588C539.56 87.9772 539.335 83.4769 540.114 79.096C541.113 72.4885 543.589 65.8065 545.267 59.0797C545.272 59.0425 545.272 59.005 545.267 58.9678C546.147 55.6271 546.692 52.207 546.893 48.7582C547.184 41.8002 545.402 34.8571 542.538 28.5181C539.995 22.9025 536.244 17.3764 530.501 15.0943C526.235 13.3716 521.455 13.6475 516.861 13.3641C506.555 12.7228 496.725 9.09835 486.926 5.80206C477.127 2.50576 467.044 -0.49222 456.73 0.0820203C446.416 0.656261 435.804 5.63053 431.098 14.7587C429.606 17.6075 428.749 20.7771 426.966 23.4544C423.625 28.5032 417.644 31.0314 412.655 34.5141C407.666 37.9968 403.273 42.9413 401.469 48.8403C400.483 52.0184 400.344 55.3988 401.066 58.6471C401.228 59.3807 401.437 60.1031 401.692 60.8098C402.4 62.7803 403.504 64.5849 404.936 66.1122C406.017 67.2411 407.258 68.2036 408.62 68.9685C410.331 69.9169 412.163 70.6293 414.065 71.0865C413.997 71.3102 413.93 71.5489 413.856 71.7801C413.736 72.1604 413.632 72.5258 413.52 72.936C413.274 73.8533 413.043 74.7855 412.849 75.7252C412.841 75.7921 412.841 75.8596 412.849 75.9265C411.933 80.1684 411.473 84.4961 411.477 88.8358C411.475 90.8882 411.58 92.9393 411.79 94.9809C414.773 125.244 439.756 149.116 470.624 150.667C471.683 150.72 472.749 150.749 473.83 150.749C474.323 150.749 474.807 150.749 475.322 150.749C475.807 151.391 476.284 152.047 476.739 152.688C477.194 153.33 477.611 153.986 478.007 154.627L476.925 153.509L475.844 152.517C475.551 152.919 475.224 153.296 474.867 153.643C474.162 153.395 473.442 153.191 472.712 153.031C469.617 152.345 464.904 152.092 458.699 153.964C452.994 155.671 446.021 159.184 437.862 165.859L398.105 189.723L376.597 202.804L368.849 221.746C368.849 221.746 363.024 244.254 356.544 270.042C356.29 270.117 356.044 270.191 355.798 270.281C355.273 270.221 354.745 270.191 354.217 270.191C350.457 270.183 346.84 271.631 344.125 274.233C341.411 276.835 339.81 280.388 339.659 284.145C326.773 299.806 326.042 315.467 329.07 322.656C329.344 323.33 329.689 323.972 330.099 324.573C332.082 327.436 335.789 334.82 339.548 342.687C339.451 343.336 339.391 343.881 339.361 344.291C339.354 344.425 339.354 344.559 339.361 344.694C339.361 344.694 341.598 378.484 334.141 388.172C332.507 390.282 332.754 393.057 334.141 396.129C339.137 407.181 358.893 421.94 358.893 421.94C358.893 421.94 382.586 421.813 395.786 420.374C395.749 421.701 395.719 423.021 395.689 424.312C395.391 437.348 395.391 448.273 395.391 448.273L394.898 461.943C394.898 461.943 390.424 490.752 388.186 498.694C386.777 503.676 388.403 549.802 389.82 583.712H623.26C626.004 563.651 622.134 502.699 622.134 502.699C622.134 502.699 618.457 486.941 618.323 473.204C618.315 473.189 618.312 473.172 618.312 473.156C618.312 473.139 618.315 473.122 618.323 473.107C618.323 471.906 618.323 470.736 618.367 469.587L620.06 469.527L623.103 469.423H623.379C623.379 469.423 623.454 469.14 623.625 468.677C624.028 467.526 624.577 466.43 625.258 465.418C626.556 463.502 628.585 461.622 631.635 461.496C633.32 461.428 635.93 460.064 638.876 458.05C638.896 458.055 638.916 458.055 638.936 458.05C646.863 452.688 657.341 442.792 659.884 441.166C663.382 438.929 680.132 424.013 680.132 424.013C680.132 424.013 682.63 420.851 685.293 417.04L685.39 416.906C688.701 412.133 692.221 406.428 691.356 404.631C689.864 401.409 692.355 393.705 692.355 393.705C700.133 379.469 691.893 360.601 688.388 355.88ZM544.179 126.497C544.25 126.72 544.295 126.95 544.313 127.183C544.126 126.937 543.94 126.676 543.753 126.437L543.574 126.199L543.448 126.02L543.731 125.632C543.731 125.632 543.731 125.632 543.731 125.684C543.928 125.926 544.08 126.201 544.179 126.497ZM541.673 119.89C540.86 120.054 540.219 120.203 539.801 120.315C539.271 119.375 538.764 118.435 538.309 117.481C539.505 118.174 540.631 118.981 541.673 119.89ZM540.271 121.068C540.269 121.053 540.269 121.038 540.271 121.023L540.33 121.068C540.636 121.269 540.935 121.463 541.21 121.664C541.457 121.843 541.68 122.015 541.904 122.194C541.755 122.455 541.591 122.723 541.427 122.94C541.166 122.53 540.92 122.134 540.681 121.724C540.532 121.56 540.398 121.336 540.271 121.068ZM535.796 111.865C537.237 111.723 538.688 111.723 540.129 111.865C540.33 111.865 540.509 111.902 540.688 111.932C541.093 111.995 541.49 112.097 541.874 112.238C542.755 113.471 543.298 114.914 543.448 116.422L543.045 116.481L542.65 116.556C541.904 116.683 541.158 116.809 540.577 116.929L539.831 117.085C538.839 117.302 538.265 117.466 538.242 117.473C538.145 117.272 538.048 117.085 537.944 116.892C537.78 116.571 537.608 116.243 537.459 115.922C537.31 115.601 537.116 115.236 536.96 114.9C536.855 114.721 536.781 114.542 536.699 114.378C536.699 114.304 536.624 114.244 536.594 114.169C536.551 114.09 536.513 114.008 536.482 113.923C536.027 112.999 535.61 112.074 535.207 111.164C535.162 111.075 535.125 110.978 535.088 110.888L535.654 110.851V111.045L535.796 111.865ZM357.864 574.494C357.804 563.39 356.999 551.375 354.761 540.099C353.807 535.304 352.822 530.509 351.823 525.796C351.569 524.617 351.323 523.454 351.077 522.291L348.78 522.596H348.571C342.307 493.056 335.759 467.029 335.759 467.029C335.759 467.029 322.753 417.369 324.259 413.409C324.453 412.894 324.207 411.507 323.655 409.471C320.508 398.18 307.368 367.067 302.774 356.432C302.774 356.387 302.736 356.335 302.722 356.298C301.976 354.515 301.439 353.315 301.275 352.964L302.356 337.094L302.416 336.14L302.558 334.111L302.498 334.059L302.558 333.119C302.558 333.119 291.207 323.812 271.981 317.093C271.235 316.824 270.445 316.563 269.662 316.31C270.624 309.889 271.899 302.64 273.562 295.577C273.719 294.869 273.89 294.183 274.069 293.489C274.226 292.796 274.405 292.124 274.584 291.446C274.867 290.342 275.173 289.253 275.486 288.179C276.523 287.851 277.544 287.486 278.551 287.098L278.939 286.949C291.342 282.123 301.576 272.966 307.746 261.174C313.916 249.382 315.605 235.754 312.499 222.813C310.728 215.473 307.457 208.58 302.893 202.565C302.55 202.103 302.185 201.641 301.819 201.186C301.454 200.731 301.014 200.224 300.604 199.761C302.759 194.861 305.302 190.2 305.511 185.435C305.548 184.831 305.548 184.226 305.511 183.623V183.548C305.235 180.483 303.878 177.381 300.715 174.122C296.099 169.341 289.529 166.918 282.959 165.754C276.389 164.591 269.692 164.561 263.084 163.778C252.129 162.465 241.457 159.087 230.501 158.05C217.007 156.801 203.422 159.115 191.103 164.762C182.951 168.491 174.696 175.009 174.204 183.951C173.801 191.341 178.947 198.426 177.649 205.727C176.359 212.902 169.05 218.547 169.692 225.803C169.938 228.637 171.392 231.173 173.212 233.433C173.838 234.178 174.502 234.924 175.188 235.67C177.843 238.481 180.766 241.181 182.25 244.723C182.31 244.873 182.37 245.022 182.422 245.171C183.682 248.669 183.115 253.091 179.998 255.097C180.015 255.11 180.028 255.129 180.035 255.149C180.08 255.209 180.125 255.254 180.162 255.313C180.167 255.301 180.167 255.288 180.162 255.276C181.267 256.586 182.757 257.515 184.421 257.931L185.054 258.125C184.54 258.684 184.055 259.266 183.563 259.877L183.242 260.303C182.42 261.408 181.673 262.566 181.005 263.77C180.625 264.442 180.259 265.113 179.953 265.784C178.931 267.83 178.191 270.005 177.753 272.25C176.955 277.187 178.082 282.333 176.873 287.165C175.382 293.131 170.661 297.71 167.999 303.251C162.957 313.692 165.814 325.945 166.828 337.475C168.208 353.136 165.97 368.864 163.74 384.421C162.557 392.694 161.374 400.974 160.191 409.262C157.207 430.064 154.224 450.866 151.241 471.668C150.153 479.29 148.862 487.329 143.784 493.213H143.836C143.836 493.213 143.836 493.258 143.784 493.273C145.308 493.939 146.93 494.357 148.586 494.511C155.216 495.174 162.241 491.968 168.208 488.463C172.932 485.732 177.407 482.59 181.579 479.073C180.968 481.311 180.311 483.749 179.61 486.374C179.613 486.399 179.613 486.424 179.61 486.449C171.191 518.517 157.647 577.306 157.647 577.306C157.647 577.306 156.417 579.864 154.821 583.675H365.127C362.666 580.692 360.377 577.835 358.587 575.531L357.864 574.494ZM202.147 277.977C202.2 277.888 202.237 277.806 202.289 277.724C202.289 277.962 202.289 278.193 202.289 278.417C202.289 278.641 202.289 278.842 202.289 279.051C202.289 279.26 202.289 279.238 202.289 279.342C202.289 279.446 202.289 279.342 202.289 279.342C202.289 279.648 202.222 279.953 202.17 280.259C202.17 280.259 202.17 280.297 202.17 280.326L202.916 280.602L203.781 280.96C208.892 282.979 214.067 284.806 219.308 286.442C219.844 286.613 220.389 286.777 220.933 286.934L221.045 287.859C221.179 288.806 221.306 289.768 221.425 290.73C221.425 290.73 221.425 290.775 221.425 290.804C221.761 293.467 222.089 296.122 222.38 298.717C222.38 298.717 208.688 293.497 208.859 301.424C208.852 301.566 208.852 301.708 208.859 301.849C208.844 302.038 208.844 302.227 208.859 302.416C208.986 308.591 210.918 312.253 211.305 314.132C211.282 314.21 211.241 314.281 211.186 314.341C210.855 315.061 210.741 315.862 210.858 316.645C210.845 317.979 210.95 319.312 211.171 320.628C210.768 320.874 210.373 321.12 209.978 321.373C209.68 321.56 209.396 321.769 209.105 321.977C207.276 315.631 204.882 309.462 201.954 303.542C199.903 299.321 197.598 294.921 197.621 290.29C197.621 289.992 197.621 289.686 197.658 289.38C197.741 288.038 197.997 286.712 198.419 285.435C198.59 284.95 198.777 284.473 198.985 284.003C199.473 282.887 200.018 281.796 200.619 280.737C201.006 280.036 201.417 279.342 201.812 278.641C201.939 278.432 202.058 278.216 202.177 278.007L202.147 277.977ZM536.997 114.9C536.892 114.721 536.818 114.542 536.736 114.378C536.736 114.304 536.661 114.244 536.631 114.169C536.469 114.246 536.302 114.313 536.132 114.371C535.804 114.498 535.468 114.617 535.125 114.714C534.782 114.811 534.64 114.863 534.379 114.923L533.715 115.094L533.775 115.228C534.051 115.169 534.32 115.117 534.595 115.042L534.67 115.967C534.983 115.967 535.274 115.922 535.558 115.922H535.96C536.542 115.922 537.049 115.922 537.452 115.922C537.295 115.586 537.131 115.236 536.997 114.9Z" fill="url(#paint1_linear)"/>
<path d="M374.047 224.439L369.572 226.415C369.572 226.415 340.405 339.727 340.405 348.885C340.405 358.043 402.252 409.001 402.252 409.001L411.902 343.866C411.902 343.866 398.046 194.496 374.047 224.439Z" fill="#E8F5FF"/>
<path d="M509.709 188.396L483.869 174.912C482.421 168.742 479.853 162.89 476.292 157.648C472.511 152.189 467.484 146.827 461.22 144.03C445.387 136.93 528.189 99.6643 528.189 99.6643C529.494 104.141 531.03 108.547 532.791 112.864C537.057 123.395 544.134 137.012 553.255 140.89C568.759 147.49 509.709 188.396 509.709 188.396Z" fill="#FFC1C7"/>
<path opacity="0.1" d="M532.791 112.864C529.253 125.307 521.895 136.325 511.758 144.36C501.62 152.396 489.214 157.044 476.292 157.648C472.511 152.189 467.484 146.827 461.22 144.03C445.387 136.93 528.189 99.6643 528.189 99.6643C529.494 104.141 531.03 108.547 532.791 112.864Z" fill="black"/>
<path d="M535.118 94.0487C535.121 106.252 531.505 118.182 524.727 128.331C517.949 138.479 508.314 146.389 497.04 151.061C485.766 155.733 473.36 156.956 461.39 154.577C449.421 152.197 438.426 146.321 429.797 137.693C421.167 129.064 415.29 118.07 412.909 106.101C410.528 94.132 411.75 81.7258 416.42 70.4513C421.091 59.1769 429 49.5407 439.147 42.7615C449.295 35.9824 461.224 32.3648 473.428 32.3663C481.539 32.3287 489.577 33.8985 497.078 36.985C504.579 40.0714 511.394 44.6134 517.13 50.3485C522.866 56.0836 527.409 62.8983 530.496 70.3989C533.584 77.8996 535.154 85.9376 535.118 94.0487Z" fill="#FFC1C7"/>
<path d="M544.022 180.476L527.198 219.733L512.357 245.79H464.851L450.995 210.165L456.611 173.219H492.892L516.317 171.899L524.229 169.259L529.331 172.153L544.022 180.476Z" fill="#575A89"/>
<path opacity="0.1" d="M538.228 128.145C538.228 128.145 548.721 130.382 539.324 138.086C529.927 145.79 497.509 170.288 497.509 170.288C497.509 170.288 508.897 180.431 506.54 192.311L544.268 171.28L550.98 137.631C550.98 137.631 551.734 127.519 538.228 128.145Z" fill="black"/>
<path opacity="0.1" d="M504.929 170.288L480.93 174.248C480.93 174.248 485.882 192.557 483.406 197.755C483.331 197.917 483.269 198.084 483.22 198.255L473.428 224.722L480.766 245.507L506.167 210.866L497.509 197.755C497.509 197.755 506.659 185.629 512.103 181.423C517.547 177.217 504.929 170.288 504.929 170.288Z" fill="black"/>
<path d="M504.929 169.267L480.93 173.219C480.93 173.219 485.882 191.528 483.406 196.726C483.331 196.887 483.269 197.054 483.22 197.226L473.428 223.693L480.766 244.477L506.167 209.814L497.509 196.703C497.509 196.703 506.659 184.577 512.103 180.371C517.547 176.165 504.929 169.267 504.929 169.267Z" fill="#DCE6F2"/>
<path d="M539.234 126.169C539.234 126.169 549.727 128.406 540.323 136.11C530.919 143.814 497.509 170.288 497.509 170.288C497.509 170.288 509.881 178.455 507.532 190.327L545.26 169.304L551.972 135.655C551.972 135.655 552.718 125.542 539.234 126.169Z" fill="#575A89"/>
<path opacity="0.1" d="M477.94 159.982C477.94 159.982 480.229 164.263 490.335 171.981C490.335 171.981 473.51 180.931 479.946 193.512L454.21 186.8L450.25 174.427L477.94 159.982Z" fill="black"/>
<path d="M476.948 158.998C476.948 158.998 479.238 163.278 489.343 170.997C489.343 170.997 472.518 179.901 478.954 192.52L453.225 185.808L449.265 173.443L476.948 158.998Z" fill="#575A89"/>
<path opacity="0.1" d="M544.022 180.476L527.198 219.733L512.387 245.79H464.851L450.995 210.165L456.603 173.219H466.694C466.529 181.84 469.677 191.968 469.475 195.734C469.132 201.924 478.708 235.319 478.708 235.319C478.708 235.319 498.747 202.908 506.659 200.022C511.633 198.21 522.171 183.131 529.323 172.153L544.022 180.476Z" fill="black"/>
<path d="M610.298 387.061L608.591 389.208C608.591 389.208 620.963 451.308 617.54 465.411C616.958 467.953 616.626 470.545 616.548 473.152V473.264C615.944 487.612 620.277 506.234 620.277 506.234C620.277 506.234 623.737 561.123 621.768 583.697H390.118C388.761 550.316 387.299 507.069 388.627 502.274C390.864 494.362 395.339 465.657 395.339 465.657L395.831 452.054C395.831 452.054 395.831 438.906 396.233 424.259C396.405 417.674 396.659 410.761 397.024 404.631C397.494 396.92 398.15 390.424 399.052 387.232C399.608 384.813 399.928 382.345 400.007 379.864C400.007 379.633 400.007 379.394 400.052 379.155C400.052 378.41 400.126 377.604 400.156 376.776C400.156 376.545 400.156 376.314 400.156 376.031C400.298 371.228 400.246 365.53 400.089 359.624C400.089 359.303 400.089 358.975 400.089 358.647C399.962 354.217 399.776 349.698 399.567 345.402C398.918 331.978 398.075 320.628 398.075 320.628L369.625 226.363L377.291 207.48L398.568 194.444L437.907 170.691C457.096 154.918 469.729 156.812 474.546 158.543C475.014 158.702 475.473 158.889 475.919 159.102C476.068 159.177 476.187 159.236 476.299 159.303C476.452 159.376 476.599 159.461 476.739 159.557C475.42 160.192 474.274 161.136 473.398 162.309C472.411 163.644 471.708 165.167 471.332 166.783C471.08 167.786 470.903 168.805 470.803 169.834C470.706 170.915 470.668 172.034 470.668 173.16C470.722 175.629 470.933 178.093 471.302 180.535C471.302 180.58 471.302 180.64 471.302 180.699C471.548 182.444 471.854 184.152 472.153 185.756C472.149 185.783 472.149 185.81 472.153 185.838C472.496 187.71 472.839 189.44 473.07 190.931C473.115 191.2 473.152 191.446 473.189 191.677C473.354 192.663 473.431 193.661 473.42 194.66C473.504 197.073 473.829 199.471 474.39 201.819C474.584 202.804 474.807 203.855 475.054 204.952C475.389 206.443 475.755 208.069 476.15 209.725C476.366 210.634 476.597 211.574 476.836 212.506C476.925 212.879 477.022 213.252 477.112 213.632L477.261 214.222C478.85 220.538 480.572 226.825 481.631 230.628C482.258 232.866 482.653 234.245 482.653 234.245C482.653 234.245 493.884 216.086 502.848 205.75C502.983 205.601 503.102 205.459 503.229 205.325C504.116 204.303 504.989 203.371 505.824 202.55C507.651 200.731 509.292 199.433 510.612 198.956C510.893 198.853 511.165 198.725 511.425 198.575C515.094 196.495 521.015 188.94 526.556 181.027C527.101 180.282 527.63 179.469 528.167 178.701C529.398 176.926 530.591 175.143 531.717 173.436C532.582 172.13 533.41 170.863 534.193 169.655C537.922 163.852 540.547 159.527 540.547 159.527L545.722 159.296L546.625 159.251H547.229L570.728 158.162C570.728 158.162 571.742 158.334 573.413 158.669C573.502 158.669 573.592 158.669 573.689 158.729C582.026 160.385 605.19 165.627 606.607 172.899C608.337 181.803 645.7 193.683 645.7 193.683C646.192 199.649 655.343 203.579 655.343 203.579C655.343 203.579 669.199 240.197 665.493 254.545C661.831 268.715 675.024 303.766 675.374 304.75L672.846 307.942L610.298 387.061Z" fill="#E8F5FF"/>
<path opacity="0.1" d="M538.22 125.542C538.22 125.542 561.093 119.054 566.291 132.411C571.489 145.768 583.115 199.709 583.115 199.709C583.115 199.709 552.927 205.399 545.014 199.709C540.373 196.332 534.628 194.83 528.928 195.503L511.857 207.129L506.816 205.638C506.816 205.638 534.126 165.038 540.062 151.242C545.998 137.445 548.005 131.277 538.22 125.542Z" fill="black"/>
<path d="M537.228 122.559C537.228 122.559 560.116 116.071 565.336 129.428C570.557 142.785 582.161 196.726 582.161 196.726C582.161 196.726 551.98 202.416 544.06 196.726C539.421 193.349 533.679 191.847 527.981 192.52L510.895 204.146L505.854 202.655C505.854 202.655 533.164 162.055 539.1 148.259C545.037 134.462 547.013 128.309 537.228 122.559Z" fill="#E8F5FF"/>
<path opacity="0.1" d="M383.697 337.75C383.697 337.75 400.768 341.957 403.989 351.607C407.211 361.257 391.371 361.503 391.371 361.503C391.371 361.503 381.721 344.433 383.697 337.75Z" fill="black"/>
<path opacity="0.1" d="M447.281 409.001C447.281 409.001 405.474 494.608 415.124 502.774C424.774 510.94 447.281 409.001 447.281 409.001Z" fill="black"/>
<path opacity="0.1" d="M504.929 345.917C504.929 345.917 538.332 429.07 531.65 441.912C524.968 454.754 545.999 441.912 545.999 441.912L504.929 345.917Z" fill="black"/>
<path d="M551.443 428.055C551.443 428.055 438.623 433.499 471.534 468.633C504.444 503.766 571.981 470.124 571.981 470.124L551.443 428.055Z" fill="#FFC1C7"/>
<path opacity="0.1" d="M535.118 94.0487C535.128 102.14 533.539 110.154 530.442 117.63C529.405 117.749 528.369 117.824 527.369 117.868C525.878 114.595 526.676 110.814 526.706 107.211C526.735 103.609 525.408 99.3734 521.94 98.4039C515.027 96.4575 510.254 109.382 503.438 107.047C498.217 105.272 499.582 97.3524 496.577 92.7809C494.198 89.1639 489.432 88.1422 485.726 85.8751C477.843 81.035 478.082 73.294 474.42 65.9705C470.587 58.2966 462.488 60.5637 455.455 65.0905C450.115 68.536 445.507 73.1523 439.794 75.8967C434.85 78.2831 429.294 79.1482 423.812 79.275C420.438 79.4058 417.062 79.0491 413.789 78.216C417.639 63.7436 426.621 51.1654 439.06 42.8269C451.5 34.4885 466.547 30.9592 481.397 32.8971C496.247 34.835 509.885 42.1079 519.768 53.3594C529.651 64.611 535.104 79.073 535.11 94.0487H535.118Z" fill="black"/>
<path d="M455.477 63.1142C450.13 66.5596 445.529 71.1685 439.816 73.9278C434.872 76.3068 429.316 77.1719 423.834 77.2987C417.122 77.4478 409.896 76.2695 405.309 71.422C401.096 66.9474 400.089 60.064 401.871 54.1948C403.654 48.3256 407.927 43.4558 412.946 39.9283C417.965 36.4008 423.789 33.9622 427.116 28.9133C428.876 26.2435 429.726 23.0963 431.187 20.255C435.863 11.1641 446.379 6.242 456.544 5.63047C466.708 5.01894 476.784 8.04676 486.464 11.3281C496.144 14.6095 505.898 18.219 516.115 18.8977C520.665 19.1811 525.393 18.8977 529.614 20.6204C535.289 22.9248 539.01 28.436 541.546 34.0442C544.387 40.3683 546.155 47.2741 545.857 54.1799C545.23 68.9237 535.49 83.3916 539.771 97.5164C540.905 101.283 543.03 105.146 541.897 108.912C540.241 114.408 533.149 115.661 527.414 115.922C525.922 112.648 526.72 108.86 526.75 105.265C526.78 101.67 525.452 97.4269 521.992 96.4574C515.071 94.5259 510.298 107.428 503.497 105.101C498.314 103.318 499.656 95.4059 496.643 90.8344C494.264 87.2099 489.492 86.1957 485.793 83.9285C477.91 79.0885 478.148 71.3475 474.487 64.024C470.624 56.3128 462.517 58.5799 455.477 63.1142Z" fill="#99607E"/>
<path d="M346.081 346.901L340.39 348.885C340.39 348.885 342.628 382.534 335.17 392.184C327.712 401.834 359.661 425.826 359.661 425.826C359.661 425.826 403.452 425.579 404.69 422.097C405.928 418.614 402.453 359.751 402.453 359.751C402.453 359.751 378.946 350.593 380.923 335.998C380.923 335.998 373.748 370.385 363.114 368.901C352.479 367.417 340.405 358.535 346.081 346.901Z" fill="#E8F5FF"/>
<path opacity="0.1" d="M365.061 379.312C373.352 379.312 380.073 373.165 380.073 365.582C380.073 358 373.352 351.853 365.061 351.853C356.77 351.853 350.048 358 350.048 365.582C350.048 373.165 356.77 379.312 365.061 379.312Z" fill="black"/>
<path d="M381.475 347.893C381.475 347.893 378.492 256.85 352.524 277.135C326.557 297.419 326.303 321.679 331.248 328.846C336.192 336.013 352.047 371.892 352.047 371.892C354.527 373.329 357.312 374.158 360.175 374.312C363.037 374.465 365.895 373.938 368.514 372.774C371.134 371.61 373.44 369.841 375.244 367.614C377.049 365.387 378.3 362.764 378.895 359.959L381.475 347.893Z" fill="#FFC1C7"/>
<path opacity="0.1" d="M543.463 117.279C543.342 116.879 543.109 116.522 542.792 116.25C541.509 115.079 538.75 114.669 534.588 115.027L534.76 116.996C540.308 116.519 541.404 117.622 541.546 117.809V117.995L541.718 118.241C542.41 119.171 542.9 120.235 543.156 121.365C543.413 122.495 543.431 123.667 543.209 124.804C541.994 130.882 534.529 135.722 534.454 135.774L534.275 135.879L534.163 136.05C530.941 140.831 512.722 154.322 507.957 157.812L507.539 157.334C505.406 159.184 486.658 175.598 485.644 181.885C484.987 185.83 480.542 187.359 478.932 187.784C477.231 186.494 471.713 182.101 468.841 177.179C466.149 172.548 476.985 163.509 477.94 159.982L476.448 158.453C476.292 159.02 462.376 172.026 466.246 178.671C469.349 184.003 475.016 188.567 477 190.074C476.366 195.831 472.421 229.637 466.358 237.646C458.826 247.602 452.494 297.777 453.195 315.295C453.814 330.86 449.75 360.258 436.177 372.883C433.827 375.165 430.992 376.887 427.884 377.92C424.776 378.953 421.474 379.271 418.226 378.85H418.062H417.898C417.704 378.85 398.016 380.863 381.475 366.917C367.939 355.529 360.273 336.945 358.677 311.663H358.349L358.214 304.303C361.884 303.73 365.19 301.757 367.435 298.798C369.681 295.84 370.693 292.126 370.258 288.437C369.823 284.748 367.975 281.371 365.102 279.016C362.23 276.662 358.556 275.512 354.854 275.808C351.151 276.105 347.708 277.825 345.247 280.608C342.786 283.39 341.5 287.018 341.658 290.729C341.816 294.44 343.406 297.945 346.094 300.509C348.782 303.072 352.36 304.493 356.074 304.474H356.238L356.372 311.79L355.716 311.835C357.357 337.937 365.411 357.245 379.581 369.17C390.35 378.094 404.107 382.596 418.07 381.766C419.06 381.874 420.056 381.929 421.053 381.93C427.452 381.963 433.61 379.486 438.205 375.031C452.502 361.719 456.849 331.24 456.171 315.146C455.425 296.584 462.07 248.214 468.737 239.406C475.27 230.763 479.23 197.084 479.923 190.558C482.288 189.895 487.635 187.799 488.545 182.355C489.201 178.417 501.722 166.284 509.426 159.564L509.195 159.296C513.341 156.268 526.236 146.722 532.627 140.592C534.611 138.69 536.579 136.789 538.638 134.976C541.114 132.784 544.261 129.301 545.089 125.184C545.371 123.826 545.372 122.423 545.093 121.064C544.813 119.704 544.258 118.417 543.463 117.279Z" fill="black"/>
<path d="M476.747 189.604C476.433 189.387 469.006 184.07 465.284 177.671C461.421 171.027 475.337 158.028 475.486 157.461L476.978 158.99C476.031 162.51 465.195 171.556 467.887 176.18C471.28 182.019 478.425 187.128 478.499 187.18L476.747 189.604Z" fill="#353146"/>
<path d="M506.988 159.259L505.824 157.655C506.063 157.484 529.487 140.54 533.179 135.058L533.298 134.894L533.47 134.782C533.544 134.73 541.01 129.898 542.225 123.812C542.449 122.676 542.432 121.505 542.175 120.376C541.919 119.247 541.427 118.184 540.734 117.257L540.562 117.003V116.824C540.413 116.631 539.317 115.534 533.768 116.012L533.597 114.035C537.765 113.677 540.517 114.087 541.8 115.258C542.119 115.533 542.355 115.892 542.479 116.295C543.285 117.429 543.851 118.716 544.141 120.077C544.43 121.438 544.438 122.843 544.164 124.208C543.336 128.332 540.197 131.814 537.713 133.999C535.662 135.812 533.686 137.728 531.71 139.615C524.215 146.797 507.808 158.669 506.988 159.259Z" fill="#E8F5FF"/>
<path d="M357.252 301.706L355.276 301.743L355.496 313.755L357.472 313.719L357.252 301.706Z" fill="#E8F5FF"/>
<path d="M355.112 303.527C363.082 303.527 369.542 297.066 369.542 289.097C369.542 281.127 363.082 274.666 355.112 274.666C347.142 274.666 340.681 281.127 340.681 289.097C340.681 297.066 347.142 303.527 355.112 303.527Z" fill="#27A4A8"/>
<path d="M355.112 301.081C361.731 301.081 367.096 295.715 367.096 289.097C367.096 282.478 361.731 277.112 355.112 277.112C348.493 277.112 343.127 282.478 343.127 289.097C343.127 295.715 348.493 301.081 355.112 301.081Z" fill="#E8F5FF"/>
<path d="M420.113 380.968C419.117 380.969 418.121 380.917 417.13 380.811C403.169 381.633 389.415 377.132 378.641 368.215C364.471 356.283 356.432 336.997 354.776 310.873L357.759 310.687C359.355 335.968 367.022 354.56 380.565 365.94C397.106 379.849 416.787 377.873 416.981 377.873H417.145H417.309C420.558 378.292 423.86 377.973 426.969 376.94C430.078 375.907 432.914 374.187 435.267 371.907C448.833 359.281 452.897 329.883 452.278 314.318C451.532 296.786 457.864 246.61 465.403 236.662C472.004 227.944 476.098 188.649 476.143 188.254L476.254 187.135L477.358 186.941C477.425 186.941 483.869 185.718 484.674 180.901C485.718 174.621 504.437 158.207 506.562 156.35L508.509 158.587C500.775 165.299 488.254 177.44 487.627 181.386C486.717 186.845 481.37 188.933 479.014 189.589C478.268 196.122 474.338 229.793 467.827 238.437C461.16 247.244 454.515 295.615 455.261 314.177C455.902 330.27 451.599 360.757 437.303 374.062C432.7 378.528 426.527 381.008 420.113 380.968Z" fill="#353146"/>
<g opacity="0.1">
<path opacity="0.1" d="M541.472 76.4187C542.695 71.8993 544.171 67.3501 545.201 62.7711C543.97 67.3725 542.486 71.8993 541.472 76.4187Z" fill="black"/>
<path opacity="0.1" d="M528.995 111.932C527.503 108.658 528.301 104.87 528.331 101.275C528.361 97.6805 527.034 93.4744 523.573 92.4676C516.653 90.5361 511.88 103.445 505.078 101.111C499.858 99.3287 501.238 91.4161 498.225 86.8445C495.846 83.2201 491.08 82.2059 487.381 79.9387C479.491 75.0987 479.73 67.3576 476.075 60.0342C472.235 52.3528 464.143 54.6199 457.103 59.1542C451.756 62.5996 447.155 67.2159 441.442 69.9678C436.498 72.3468 430.942 73.2119 425.46 73.3387C418.786 73.4953 411.522 72.3095 406.935 67.462C403.4 63.7332 402.125 58.2667 402.856 53.1433C402.729 53.4938 402.617 53.8443 402.505 54.1948C400.716 60.064 401.76 66.9624 405.943 71.4221C410.53 76.2695 417.794 77.4479 424.468 77.2987C429.957 77.1719 435.506 76.3068 440.458 73.9278C446.185 71.1685 450.786 66.5597 456.119 63.1142C463.159 58.5799 471.258 56.3128 475.091 63.9942C478.745 71.3177 478.514 79.0587 486.397 83.8988C490.126 86.1361 494.861 87.1801 497.248 90.8046C500.231 95.391 498.911 103.289 504.101 105.071C510.895 107.398 515.668 94.4961 522.589 96.4276C526.049 97.3971 527.384 101.648 527.347 105.235C527.31 108.822 526.534 112.618 528.011 115.892C533.746 115.631 540.838 114.401 542.501 108.882C542.73 108.09 542.835 107.267 542.814 106.443C540.39 110.627 534.156 111.701 528.995 111.932Z" fill="black"/>
</g>
<path opacity="0.1" d="M663.777 295.689L672.436 304.847C672.436 304.847 679.364 355.313 682.824 360.034C686.285 364.755 694.458 383.533 686.784 397.636C686.784 397.636 684.308 405.31 685.792 408.524C687.277 411.738 674.666 427.824 674.666 427.824C674.666 427.824 658.087 442.665 654.619 444.895C651.152 447.125 632.85 464.934 626.668 465.18C620.486 465.426 618.465 473.1 618.465 473.1L583.578 474.338C583.578 474.338 564.307 473.331 560.116 476.053C560.116 476.053 562.353 446.61 540.823 427.31L568.282 417.413C568.282 417.413 578.678 412.939 581.892 408.263C583.914 405.396 586.783 403.234 590.096 402.08C590.096 402.08 597.762 396.636 598.008 393.668C598.254 390.7 607.382 387.061 607.382 387.061L602.214 342.948L604.936 269.714C604.936 269.714 613.595 208.352 631.903 211.82C650.212 215.288 663.777 295.689 663.777 295.689Z" fill="black"/>
<path d="M666.76 295.689L675.419 304.847C675.419 304.847 682.347 355.313 685.807 360.034C689.268 364.755 697.441 383.533 689.767 397.636C689.767 397.636 687.299 405.31 688.783 408.524C690.267 411.738 677.648 427.824 677.648 427.824C677.648 427.824 661.07 442.665 657.602 444.895C654.134 447.125 635.833 464.934 629.651 465.18C623.469 465.426 621.447 473.1 621.447 473.1L586.561 474.338C586.561 474.338 567.275 473.331 563.099 476.053C563.099 476.053 565.336 446.61 543.806 427.31L571.265 417.413C571.265 417.413 581.661 412.939 584.875 408.263C586.897 405.396 589.766 403.234 593.079 402.08C593.079 402.08 600.745 396.636 600.991 393.668C601.237 390.7 610.365 387.061 610.365 387.061L605.197 342.948L607.919 269.714C607.919 269.714 616.578 208.352 634.886 211.82C653.195 215.288 666.76 295.689 666.76 295.689Z" fill="#E8F5FF"/>
<path opacity="0.1" d="M634.573 369.669C634.573 369.669 660.056 362.957 666.738 371.161C673.42 379.364 634.573 369.669 634.573 369.669Z" fill="black"/>
<path opacity="0.1" d="M628.637 380.923C637.295 386.986 664.016 387.232 664.016 387.232L628.637 380.923Z" fill="black"/>
<path opacity="0.1" d="M641.748 411.231C642.493 411.477 660.116 430.285 667.514 424.595C674.912 418.905 641.748 411.231 641.748 411.231Z" fill="black"/>
<path opacity="0.1" d="M404.415 253.382C404.415 253.382 409.59 289.015 407.04 303.527C404.489 318.04 413.796 336.02 413.796 336.02L404.415 253.382Z" fill="black"/>
<path d="M289.835 267.872C283.869 272.548 279.514 283.615 276.359 295.779C270.855 316.996 269.058 341.599 269.058 341.599C269.058 341.599 221.553 330.71 225.013 325.766C227.191 322.656 224.267 299.224 221.829 282.236C220.374 272.198 219.077 264.404 219.077 264.404C219.077 264.404 306.167 255 289.835 267.872Z" fill="#FFCCD0"/>
<path opacity="0.1" d="M289.835 266.88C283.869 271.564 279.514 282.623 276.359 294.787C266.894 297.661 256.828 297.92 247.228 295.537C237.627 293.154 228.851 288.218 221.829 281.251C220.374 271.206 219.077 263.412 219.077 263.412C219.077 263.412 306.167 254.016 289.835 266.88Z" fill="black"/>
<path d="M315.37 240.226C315.375 253.198 310.791 265.753 302.429 275.669C294.067 285.585 282.467 292.224 269.681 294.41C256.895 296.595 243.749 294.188 232.567 287.612C221.386 281.037 212.892 270.718 208.587 258.482C204.283 246.245 204.446 232.881 209.048 220.753C213.65 208.626 222.393 198.517 233.732 192.217C245.07 185.916 258.272 183.83 271 186.327C283.729 188.824 295.164 195.744 303.281 205.862C311.103 215.607 315.367 227.73 315.37 240.226Z" fill="#FFCCD0"/>
<path opacity="0.1" d="M358.684 583.697H343.023L341.703 556.036L340.323 527.406C340.323 527.406 343.881 526.877 349.548 526.086L351.838 525.781H352.024C353.262 531.59 354.485 537.556 355.664 543.515C357.625 554.093 358.646 564.825 358.714 575.583C358.714 576.329 358.714 577.075 358.714 577.776C358.759 579.767 358.714 581.758 358.684 583.697Z" fill="black"/>
<path d="M355.679 583.697H159.273C160.124 581.765 160.69 580.595 160.69 580.595C160.69 580.595 176.404 511.85 184.391 482.765C184.393 482.74 184.393 482.715 184.391 482.69C185.389 478.739 186.594 474.844 188 471.019C188.091 470.759 188.209 470.509 188.351 470.273C192.303 463.845 197.255 456.917 190.327 447.02C183.399 437.124 185.853 393.579 185.853 393.579C185.853 393.579 194.265 356.462 203.169 336.669C204.521 333.603 206.439 330.82 208.822 328.466C209.597 327.707 210.425 327.005 211.298 326.363C211.962 325.863 212.654 325.403 213.371 324.983L213.513 324.893C217.254 322.773 221.407 321.483 225.691 321.112C228.735 320.794 231.806 320.88 234.827 321.366C249.265 323.484 260.825 327.026 270.012 331.061C294.914 342.001 302.453 356.663 302.602 356.969L302.662 357.096C303.661 359.43 318.278 393.556 323.544 409.478C324.908 413.625 325.654 416.541 325.356 417.339C323.864 421.291 336.736 470.773 336.736 470.773C336.736 470.773 342.702 494.637 348.668 522.611C348.929 523.775 349.176 524.938 349.414 526.116C350.481 531.195 351.54 536.371 352.561 541.539C354.541 552.19 355.562 562.997 355.612 573.83C355.721 577.206 355.743 580.495 355.679 583.697Z" fill="#FF748E"/>
<path opacity="0.1" d="M224.521 304.094C224.521 304.094 210.97 298.874 211.134 306.794C211.298 314.714 214.438 318.502 213.446 319.658C212.454 320.814 213.938 327.742 213.938 327.742C213.938 327.742 232.247 327.742 240.659 331.531C249.071 335.319 280.08 342.911 284.04 345.223C288.001 347.535 302.685 357.901 302.685 357.901L304.005 338.273C304.005 338.273 288.828 325.736 263.927 319.308C239.026 312.879 224.521 304.094 224.521 304.094Z" fill="black"/>
<path d="M224.521 303.102C224.521 303.102 210.97 297.882 211.134 305.802C211.298 313.722 214.438 317.51 213.446 318.666C212.454 319.822 213.938 326.75 213.938 326.75C213.938 326.75 232.247 326.75 240.659 330.546C249.071 334.342 280.08 341.927 284.04 344.231C288.001 346.536 302.685 356.909 302.685 356.909L304.02 337.34C304.02 337.34 288.843 324.804 263.942 318.375C239.041 311.947 224.521 303.102 224.521 303.102Z" fill="#FF748E"/>
<path opacity="0.1" d="M265.426 350.339C265.426 350.339 291.319 378.372 289.999 386.136C288.679 393.899 265.426 350.339 265.426 350.339Z" fill="black"/>
<path opacity="0.1" d="M223.365 451.607C223.365 451.607 204.385 469.095 198.792 470.087C193.198 471.079 203.08 474.375 209.508 471.742C215.937 469.11 229.644 462.182 229.644 462.182L223.365 451.607Z" fill="black"/>
<path d="M363.39 583.697H319.129C312.939 578.328 307.085 573.353 303.356 570.363C297.39 565.575 293.087 558.527 290.342 552.86C289.723 551.569 289.186 550.361 288.731 549.265C287.917 547.376 287.2 545.447 286.583 543.485L319.36 524.021C321.171 525.561 322.873 527.226 324.454 529.002L324.849 529.457C326.668 531.605 328.272 534.044 328.414 536.043C328.578 538.369 335.051 547.371 341.666 556.014C348.378 564.807 355.254 573.212 355.709 573.778C355.709 573.778 356.842 575.322 358.692 577.694C359.997 579.409 361.608 581.467 363.39 583.697Z" fill="#FFCCD0"/>
<path opacity="0.1" d="M303.281 205.861C301.707 209.411 300.298 213.095 300.089 217.048C299.5 228.458 300.455 253.971 287.821 259.698C281.564 262.517 274.867 256.328 268.006 256.178C263.069 256.074 258.542 259.206 255.53 263.121C252.517 267.037 250.645 271.683 248.46 276.113C246.471 280.134 244.179 283.998 241.606 287.672C240.837 288.797 239.99 289.866 239.07 290.871C231.367 287.621 224.507 282.655 219.014 276.352C213.521 270.049 209.539 262.575 207.371 254.499C205.204 246.424 204.909 237.961 206.508 229.754C208.107 221.547 211.558 213.814 216.598 207.143C221.639 200.472 228.135 195.04 235.593 191.26C243.051 187.48 251.274 185.453 259.634 185.332C267.994 185.211 276.271 187.001 283.835 190.563C291.399 194.126 298.05 199.369 303.281 205.891V205.861Z" fill="black"/>
<path d="M299.097 215.034C298.501 226.445 299.463 251.957 286.822 257.677C280.565 260.496 273.868 254.314 267.007 254.165C262.07 254.053 257.551 257.193 254.53 261.101C251.51 265.008 249.653 269.662 247.46 274.099C245.471 278.12 243.18 281.984 240.607 285.659C239.07 287.836 237.37 290.021 235.006 291.244C230.889 293.392 225.9 292.184 221.485 290.804C215.758 289 210.115 286.966 204.556 284.704C204.684 283.865 204.749 283.017 204.75 282.168C204.586 282.482 204.407 282.773 204.228 283.086L203.878 283.697C203.244 284.816 202.625 285.935 202.058 287.083C201.842 287.523 201.633 287.978 201.447 288.433C200.697 290.126 200.226 291.929 200.052 293.773C199.672 298.747 202.125 303.468 204.303 307.942C212.678 325.251 217.853 345.492 211.552 363.651C208.822 371.549 204.094 378.566 200.641 386.195C194.605 399.708 192.828 414.738 195.548 429.286C197.27 438.325 200.723 447.274 199.873 456.439C198.381 472.212 184.779 483.951 171.153 492.02C163.793 496.36 154.784 500.223 146.968 496.793C151.95 490.976 153.233 482.929 154.307 475.337C157.245 454.63 160.191 433.912 163.144 413.185C164.322 404.937 165.498 396.688 166.671 388.44C168.864 372.943 171.086 357.275 169.714 341.681C168.715 330.188 165.896 317.988 170.878 307.584C173.51 302.073 178.201 297.509 179.663 291.573C180.863 286.747 179.745 281.617 180.535 276.702C180.968 274.466 181.7 272.299 182.713 270.259C184.002 267.49 185.685 264.923 187.71 262.637C185.711 262.055 183.846 261.257 182.713 259.587C185.92 257.498 186.404 252.793 184.95 249.258C183.496 245.723 180.587 243.031 177.97 240.241C175.352 237.452 172.831 234.201 172.503 230.397C171.869 223.156 179.103 217.548 180.379 210.403C181.669 203.132 176.568 196.062 176.978 188.701C177.455 179.804 185.629 173.339 193.698 169.587C205.875 163.951 219.326 161.635 232.687 162.876C243.56 163.905 254.083 167.268 264.926 168.573C271.467 169.319 278.096 169.394 284.592 170.542C291.088 171.69 297.598 174.114 302.17 178.88C314.221 191.446 299.783 201.79 299.097 215.034Z" fill="#FFE0D0"/>
<path opacity="0.1" d="M289.014 552.867C285.211 551.219 278.29 552.203 266.41 548.586C254.53 544.969 252.241 528.622 252.241 528.622V528.57C252.099 528.197 250.995 525.766 243.523 517.249C235.267 507.845 217.421 460.347 217.421 460.347C217.421 460.347 201.596 443.351 202.095 437.087C202.595 430.822 199.284 414.154 199.612 395.51C199.94 376.866 235.237 364.501 235.237 364.501C303.199 352.457 287.195 430.807 285.382 436.744C283.57 442.68 292.974 458.714 292.974 458.714C291.647 465.694 298.418 476.5 298.418 476.5C298.418 476.5 300.059 486.061 300.395 489.693C300.413 489.861 300.451 490.026 300.507 490.185C301.595 493.608 310.47 496.711 314.08 498.597C317.876 500.581 330.084 517.898 330.084 517.898C332.716 530.613 292.803 554.538 289.014 552.867Z" fill="black"/>
<path d="M290.991 549.884C287.195 548.228 280.267 549.22 268.394 545.596C256.521 541.971 254.225 525.639 254.225 525.639V525.587C254.09 525.206 252.979 522.783 245.507 514.266C237.251 504.862 219.405 457.357 219.405 457.357C219.405 457.357 203.579 440.368 204.072 434.104C204.564 427.839 201.268 411.171 201.596 392.542C201.924 373.913 237.199 361.555 237.199 361.555C305.16 349.511 289.156 427.861 287.344 433.798C285.532 439.734 294.936 455.768 294.936 455.768C293.609 462.748 300.38 473.555 300.38 473.555C300.38 473.555 302.021 483.115 302.364 486.747C302.376 486.915 302.411 487.081 302.468 487.239C303.557 490.663 312.432 493.765 316.049 495.652C319.837 497.628 332.053 514.952 332.053 514.952C334.7 527.645 294.787 551.569 290.991 549.884Z" fill="#FF748E"/>
<path opacity="0.1" d="M238.541 402.461C238.541 402.461 268.23 433.783 275.979 433.783C283.727 433.783 238.541 402.461 238.541 402.461Z" fill="black"/>
<path d="M290.991 549.884C287.195 548.228 280.267 549.22 268.394 545.596C256.522 541.971 254.225 525.639 254.225 525.639V525.587C262.092 520.366 282.019 505.623 289.872 500.231C295.398 496.45 299.91 490.894 302.55 487.21C303.639 490.633 312.514 493.735 316.131 495.622C319.919 497.598 332.135 514.922 332.135 514.922C334.7 527.645 294.787 551.569 290.991 549.884Z" fill="#FF748E"/>
<g opacity="0.1">
<path opacity="0.1" d="M182.758 259.669C182.795 259.728 182.847 259.781 182.892 259.84C183.116 259.557 183.347 259.273 183.586 259.005C183.331 259.252 183.054 259.474 182.758 259.669Z" fill="black"/>
<path opacity="0.1" d="M200.059 293.855C200.373 289.716 202.588 286.069 204.661 282.43C203.303 281.907 201.946 281.378 200.604 280.826C200.732 279.989 200.796 279.144 200.798 278.298C198.702 282.027 196.42 285.696 196.099 289.895C195.719 294.876 198.173 299.59 200.35 304.064C208.733 321.366 213.901 341.606 207.599 359.773C204.862 367.663 200.141 374.688 196.689 382.318C190.655 395.828 188.881 410.856 191.602 425.401C193.31 434.447 196.771 443.388 195.92 452.554C194.429 468.327 180.834 480.065 167.201 488.127C161.63 491.423 155.119 494.444 148.892 494.227C148.316 495.155 147.673 496.04 146.968 496.875C154.791 500.328 163.793 496.442 171.153 492.087C184.794 484.033 198.419 472.324 199.91 456.521C200.76 447.356 197.3 438.414 195.585 429.368C192.862 414.825 194.631 399.798 200.656 386.285C204.087 378.663 208.859 371.631 211.567 363.741C217.868 345.574 212.693 325.334 204.318 308.032C202.148 303.527 199.679 298.836 200.059 293.855Z" fill="black"/>
<path opacity="0.1" d="M302.155 178.969C301.422 178.217 300.634 177.519 299.799 176.881C308.837 188.605 295.786 198.568 295.138 211.186C294.556 222.597 295.51 248.117 282.87 253.829C276.62 256.656 269.916 250.466 263.062 250.317C258.118 250.212 253.598 253.352 250.578 257.26C247.558 261.168 245.701 265.821 243.516 270.251C241.522 274.271 239.229 278.135 236.654 281.811C235.163 283.996 233.418 286.173 231.046 287.404C226.945 289.544 221.955 288.343 217.533 286.956C213.232 285.604 208.972 284.112 204.751 282.482C204.742 283.258 204.677 284.034 204.557 284.801C210.12 287.068 215.766 289.102 221.493 290.901C225.908 292.289 230.897 293.489 235.006 291.349C237.37 290.118 239.086 287.933 240.614 285.748C243.19 282.078 245.482 278.216 247.468 274.196C249.661 269.766 251.51 265.105 254.538 261.198C257.566 257.29 262.078 254.157 267.015 254.262C273.876 254.411 280.58 260.601 286.83 257.774C299.47 252.062 298.508 226.542 299.098 215.131C299.784 201.864 314.222 191.528 302.155 178.969Z" fill="black"/>
</g>
<path opacity="0.1" d="M203.885 283.705C203.251 284.823 202.632 285.942 202.065 287.091C201.849 287.531 201.64 287.985 201.454 288.44C197.546 284.503 188.03 275.143 182.72 272.242C184.011 269.475 185.694 266.908 187.717 264.621C187.717 264.621 200.372 271.31 203.885 283.705Z" fill="black"/>
<path d="M204.236 283.093C201.305 269.826 187.717 262.644 187.717 262.644C185.692 264.931 184.009 267.498 182.72 270.266C188.321 273.331 198.642 283.608 202.065 287.091L204.236 283.093Z" fill="#FF748E"/>
</g>
<defs>
<linearGradient id="paint0_linear" x1="544.432" y1="71.1536" x2="544.432" y2="57.4464" gradientUnits="userSpaceOnUse">
<stop stop-color="#808080" stop-opacity="0.25"/>
<stop offset="0.54" stop-color="#808080" stop-opacity="0.12"/>
<stop offset="1" stop-color="#808080" stop-opacity="0.1"/>
</linearGradient>
<linearGradient id="paint1_linear" x1="342137" y1="491091" x2="342137" y2="34239.9" gradientUnits="userSpaceOnUse">
<stop stop-color="#808080" stop-opacity="0.25"/>
<stop offset="0.54" stop-color="#808080" stop-opacity="0.12"/>
<stop offset="1" stop-color="#808080" stop-opacity="0.1"/>
</linearGradient>
<clipPath id="clip0">
<rect width="810" height="583.69" fill="white"/>
</clipPath>
</defs>
</svg>
