<svg width="960" height="706" viewBox="0 0 960 706" fill="none" xmlns="http://www.w3.org/2000/svg">
<circle cx="686.5" cy="852.5" r="686.5" fill="#77DFE2"/>
<path d="M746.213 306.843C746.213 306.843 727.293 212.525 734.535 200.79C734.535 200.79 734.799 189.882 734.363 175.977C734.363 175.449 734.363 174.92 734.363 174.381C735.638 175.232 736.966 175.999 738.34 176.677C745.014 180.112 752.675 181.103 760 179.479L754.27 173.083C752.895 171.556 751.462 169.902 751.164 167.882C750.866 165.861 751.691 164.058 752.402 162.255C757.846 148.476 758.132 131.149 747.646 120.631C738.787 111.79 736.633 100.376 727.018 92.3038C719.992 86.3903 716.13 77.721 712.486 69.3388C709.403 62.2541 706.297 55.112 704.533 47.6024C703.157 41.7348 702.607 35.6606 700.716 29.9309C698.825 24.2011 695.284 18.6321 689.749 16.0715C687.778 15.1644 685.589 14.6476 683.79 13.442C681.429 11.8459 680.008 9.25089 678.3 6.97736C669.625 -4.50514 640.573 2.25803 626.821 6.91993C623.082 8.09392 619.62 10.0158 616.644 12.5693L616.77 12.3627C616.873 12.1904 616.999 12.0182 617.114 11.8459C615.609 13.0655 614.309 14.5193 613.263 16.1519C611.258 19.3325 610.421 23.0414 608.748 26.4861C606.731 30.5624 595.511 41.9416 600.336 46.5231C600.674 46.8308 601.062 47.0792 601.482 47.2579C603.293 48.0132 605.288 48.213 607.212 47.8321L607.006 48.3258C605.358 52.368 604.514 56.6935 604.519 61.0599C604.519 79.9256 620.048 95.2203 639.221 95.2203C642.825 95.2238 646.409 94.67 649.844 93.5783C649.925 94.0147 649.993 94.451 650.074 94.8874C650.074 95.0596 650.131 95.2318 650.154 95.404L649.546 96.2538C649.516 96.2014 649.481 96.1514 649.443 96.1045L631.451 121.297C628.7 123.238 612.862 134.72 611.968 143.332C611.029 152.759 610.089 163.794 610.089 163.794L609.963 166.159C609.176 166.818 608.257 167.297 607.268 167.565C606.278 167.832 605.243 167.882 604.233 167.709C598.617 166.791 598.617 188.378 598.617 188.378C598.617 188.378 594.881 191.823 592.314 188.837C589.747 185.852 582.962 195.968 582.962 195.968L540.445 197.805L539.471 197.862L537.179 190.755C536.932 190.005 536.4 189.383 535.699 189.024C534.997 188.665 534.182 188.598 533.431 188.837C533.254 188.896 533.081 188.969 532.916 189.055L532.755 189.147L532.457 189.354L532.308 189.492C532.226 189.566 532.15 189.647 532.079 189.733L531.942 189.894L531.873 189.962C531.608 190.329 531.433 190.753 531.361 191.199C531.29 191.646 531.323 192.103 531.46 192.534L533.431 198.632C525.226 200.285 516.837 204.947 523.679 217.785L489 211.366L500.22 220.804L558.14 232.781C557.372 234.159 557.876 236.156 560.271 238.97C570.585 251.107 589.38 254.402 596.944 255.252C598.941 259.729 601.436 263.966 604.382 267.883L603.728 279.974C603.728 279.974 584.578 372.132 581.072 376.806C582.842 374.796 584.462 372.658 585.919 370.41C580.361 389.344 572.591 415.26 570.551 419.142C567.273 425.342 564.236 450.431 567.972 452.039C569.118 452.533 572.396 452.292 577.072 451.936V454.014L576.866 532.772C576.866 532.772 577.805 581.079 575.227 585.684C572.648 590.288 571.961 599.945 571.961 599.945C571.961 599.945 561.646 618.994 553.475 626.653C553.42 626.713 553.358 626.767 553.292 626.814L553.04 625.023C553.04 625.023 543.218 637.447 521.49 636.746C521.49 636.746 508.414 645.266 527.804 645.726C547.195 646.185 571.961 645.037 571.961 645.037C571.961 645.037 589.254 618.627 603.74 622.072V642.086H608.175V621.75C610.232 620.393 611.992 618.632 613.349 616.574C614.707 614.515 615.633 612.202 616.071 609.774C616.451 607.271 616.173 604.713 615.264 602.351C614.356 599.989 612.849 597.905 610.891 596.305C610.012 595.508 609.306 594.538 608.819 593.455C608.332 592.372 608.074 591.2 608.06 590.013L607.9 590.15C607.9 589.748 607.797 589.335 607.751 588.91C606.479 578.576 604.886 557.253 610.513 541.476C618.226 519.843 620.563 489.713 614.948 471.777C613.136 466.044 611.648 460.213 610.49 454.312C610.352 453.566 610.226 452.854 610.112 452.188C613.95 452.708 617.751 453.476 621.492 454.485C634.499 458.079 662.955 458.745 687.251 458.549C687.308 459.215 687.377 459.916 687.457 460.616C687.89 465.485 688.796 470.3 690.161 474.992C693.21 484.178 694.608 524.677 694.608 524.677C694.608 524.677 698.539 557.976 696.396 571.526C695.25 579.058 694.104 586.625 693.451 594.227V594.376C693.451 594.376 687.01 612.748 682.3 622.726C682.185 622.979 682.059 623.231 681.944 623.473C680.689 623.587 679.453 623.861 678.266 624.288C678.266 624.288 671.951 636.919 665.659 639.008C659.368 641.098 661.454 647.976 675.699 645.45C689.944 642.924 711.455 640.857 711.455 640.857L712.383 627.974L716.761 622.485L715.615 635.334L720.279 634.415L719.66 618.788L726.823 609.808C726.823 609.808 735.475 602.092 722.617 586.912V587.245C722.479 587.027 722.353 586.797 722.204 586.579V586.51C720.073 583.203 718.376 577.037 721.482 566.095C727.098 546.322 730.364 528.375 730.364 528.375C730.364 528.375 742.901 480.297 727.831 457.55H728.496C726.951 454.35 725.86 450.949 725.253 447.446C725.176 447.033 725.107 446.608 725.046 446.171C736.197 445.528 747.142 443.507 756.069 439.144C756.035 439.098 750.66 325.008 746.213 306.843ZM604.645 227.269V227.499L602.353 227.614L604.645 227.269ZM596.784 228.36C596.407 228.444 596.054 228.612 595.752 228.854C594.767 230.251 594.148 231.874 593.953 233.573L590.377 232.769C590.377 232.769 587.867 232.229 584.257 231.621L582.55 229.899C587.249 229.508 592.131 228.934 596.784 228.36Z" fill="url(#paint0_linear)"/>
<path d="M715.087 618.949L713.724 635.22L718.296 634.302L717.609 616.652L715.087 618.949Z" fill="#1D2366"/>
<path d="M610.765 541.694C605.253 557.425 606.811 578.656 608.049 588.968C608.507 592.78 608.931 595.099 608.931 595.099C608.931 595.099 600.691 613.908 600.004 614.62C599.316 615.332 575.754 629.742 575.754 629.742L559.286 639.376C559.286 639.376 542.577 632.039 550.587 629.512C552.224 628.854 553.698 627.847 554.908 626.561C562.93 618.926 573.004 599.945 573.004 599.945C573.004 599.945 573.691 590.311 576.212 585.73C578.734 581.148 577.817 533.002 577.817 533.002L578.012 454.519V444.288L609.355 444.518C609.553 447.991 610.005 451.445 610.708 454.852C611.833 460.733 613.29 466.545 615.074 472.26C620.598 490.161 618.306 520.142 610.765 541.694Z" fill="#FFB0B1"/>
<path opacity="0.1" d="M608.931 595.099C608.931 595.099 600.691 613.908 600.004 614.62C599.316 615.332 575.754 629.742 575.754 629.742L559.286 639.376C559.286 639.376 542.577 632.039 550.587 629.512C552.224 628.854 553.698 627.847 554.908 626.561L555.618 631.579L561.108 631.35L608.095 588.991C608.507 592.78 608.931 595.099 608.931 595.099Z" fill="black"/>
<path d="M608.358 590.059L561.108 632.705L555.618 632.934L554.472 624.897C554.472 624.897 544.869 637.275 523.53 636.586C523.53 636.586 510.717 645.071 529.707 645.531C548.696 645.99 572.946 644.842 572.946 644.842C572.946 644.842 589.884 618.432 604.061 621.877V641.822H608.416V621.693C610.44 620.327 612.168 618.565 613.496 616.513C614.823 614.461 615.723 612.161 616.14 609.751C616.517 607.269 616.25 604.732 615.365 602.383C614.48 600.034 613.006 597.953 611.086 596.34C610.228 595.534 609.544 594.561 609.075 593.481C608.606 592.401 608.362 591.237 608.358 590.059Z" fill="#1D2366"/>
<path d="M719.442 566.221C716.394 577.129 718.056 583.273 720.141 586.568V586.637C722.817 590.706 724.677 595.257 725.619 600.037L725.803 601.071L704.303 632.475L692.637 637.068C692.637 637.068 673.877 630.649 677.303 628.812C678.163 628.364 679.503 625.976 681.039 622.681C685.623 612.748 691.949 594.422 691.949 594.422V594.273C692.614 586.706 693.668 579.162 694.837 571.652C696.934 558.137 693.084 524.965 693.084 524.965C693.084 524.965 691.709 484.626 688.729 475.452C687.384 470.787 686.49 466.004 686.059 461.168C685.44 455.427 685.302 450.696 685.302 450.696C685.302 450.696 697.657 433.472 720.302 452.074C722.113 453.557 723.706 455.289 725.035 457.218C740.678 479.517 728.083 528.639 728.083 528.639C728.083 528.639 724.932 546.506 719.442 566.221Z" fill="#FFB0B1"/>
<path opacity="0.1" d="M725.837 601.07L704.338 632.475L692.671 637.068C692.671 637.068 673.911 630.649 677.337 628.812C678.197 628.364 679.538 625.976 681.073 622.68C689.015 622.611 693.13 630.19 693.13 630.19L703.192 628.582C703.192 628.582 716.463 602.448 719.442 600.852C722.422 599.256 719.901 588.922 719.901 588.922V586.292C719.981 586.384 720.05 586.487 720.141 586.579V586.648C722.817 590.717 724.677 595.268 725.619 600.048L725.837 601.07Z" fill="black"/>
<path d="M693.817 630.867C693.817 630.867 688.087 620.326 677.108 624.219C677.108 624.219 670.931 636.85 664.754 638.894C658.577 640.938 660.64 647.827 674.598 645.312C688.557 642.798 709.598 640.719 709.598 640.719L710.515 627.87L724.703 609.762C724.703 609.762 733.16 602.081 720.577 586.958V589.588C720.577 589.588 723.098 599.922 720.119 601.518C717.139 603.114 703.914 629.26 703.914 629.26L693.817 630.867Z" fill="#1D2366"/>
<path opacity="0.1" d="M609.39 444.495C609.587 447.968 610.039 451.423 610.742 454.83C597.838 452.935 585.862 453.877 578.012 454.497V444.265L609.39 444.495Z" fill="black"/>
<path opacity="0.1" d="M726.307 460.077C726.307 460.077 707.971 460.973 686.104 461.157C685.486 455.415 685.348 450.684 685.348 450.684C685.348 450.684 697.702 433.46 720.348 452.062C722.158 453.546 723.752 455.278 725.081 457.207C725.436 458.186 725.845 459.144 726.307 460.077Z" fill="black"/>
<path d="M726.307 458.01C726.307 458.01 645.994 461.902 621.515 455.024C597.036 448.146 572.774 454.106 569.118 452.51C565.463 450.914 568.431 425.916 571.64 419.727C574.849 413.538 592.451 350.947 592.451 350.947L609.39 262.463L627.233 257.537L628.494 257.181L659.585 248.592L682.368 242.288C682.368 242.288 727.671 419.498 723.786 432.565C722.375 437.568 722.147 442.833 723.121 447.94C723.715 451.428 724.787 454.816 726.307 458.01Z" fill="#1D2366"/>
<path d="M550.347 201.95C550.347 201.95 534.302 219.174 546.45 228.773C558.598 238.373 566.586 229.692 566.586 229.692L550.347 201.95Z" fill="#C7DAF5"/>
<path opacity="0.1" d="M550.347 201.95C550.347 201.95 534.302 219.174 546.45 228.773C558.598 238.373 566.586 229.692 566.586 229.692L550.347 201.95Z" fill="black"/>
<path d="M679.973 88.7099C679.973 88.7099 678.094 90.5011 675.263 93.1421C671.229 96.9198 665.258 102.443 659.964 107.07C652.629 113.466 646.578 118.162 648.744 114.155C650.91 110.148 650.498 103.166 649.42 96.6328C649.34 96.1964 649.271 95.7601 649.191 95.3353C648.299 90.5369 647.116 85.7974 645.65 81.1429C645.65 81.1429 657.5 65.8023 664.055 59.751C666.496 57.4545 668.204 56.513 668.307 58.109C668.421 60.2562 670.026 64.9985 672.02 70.0278C672.077 70.1886 672.134 70.3379 672.203 70.4986C673.533 73.9434 675.034 77.48 676.352 80.5343C678.369 85.2192 679.973 88.7099 679.973 88.7099Z" fill="#FFB0B1"/>
<path opacity="0.1" d="M672.203 70.4987C671.09 76.4999 668.388 82.0913 664.38 86.6885C660.372 91.2858 655.206 94.7202 649.42 96.6328C648.509 91.3912 647.249 86.2164 645.65 81.143C645.65 81.143 667.963 52.2645 668.307 58.1091C668.387 60.3252 670.129 65.2397 672.203 70.4987Z" fill="black"/>
<path opacity="0.1" d="M647.197 104.349L650.085 100.273C650.085 100.273 651.999 111.962 659.035 106.806C666.072 101.651 666.416 145.606 666.416 145.606L658.864 258.743L604.29 255.47L605.837 200.802L612.014 173.244L627.291 133.182L636.379 119.942L647.197 104.349Z" fill="black"/>
<path d="M666.416 146.306L659.54 248.603L658.818 259.443L628.391 257.617L627.245 257.548L604.324 256.17L605.871 201.491L612.049 173.933L627.325 133.87L636.413 120.631L647.231 104.98L650.119 100.916C650.119 100.916 652.033 112.605 659.07 107.449L659.219 107.346C666.095 102.982 666.416 146.306 666.416 146.306Z" fill="#1D2366"/>
<path d="M612.816 164.356C612.816 164.356 610.077 170.098 604.576 169.168C599.075 168.238 599.087 189.836 599.087 189.836C599.087 189.836 595.431 193.281 592.91 190.295C590.389 187.31 583.742 197.403 583.742 197.403L542.095 199.24C542.095 199.24 560.626 207.726 556.994 233.401C556.994 233.401 619.91 229.497 621.973 223.537C624.036 217.578 612.816 164.356 612.816 164.356Z" fill="white"/>
<path opacity="0.03" d="M612.816 164.356C612.816 164.356 610.077 170.098 604.576 169.168C599.075 168.238 599.087 189.836 599.087 189.836C599.087 189.836 595.431 193.281 592.91 190.295C590.389 187.31 583.742 197.403 583.742 197.403L542.095 199.24C542.095 199.24 560.626 207.726 556.994 233.401C556.994 233.401 619.91 229.497 621.973 223.537C624.036 217.578 612.816 164.356 612.816 164.356Z" fill="black"/>
<path d="M491.785 212.732L502.764 222.125L593.139 241.151L581.931 229.692L491.785 212.732Z" fill="white"/>
<path d="M647.369 107.966C645.868 110.262 641.57 122.02 637.983 132.286C634.992 140.84 632.494 148.361 632.494 148.361C632.494 148.361 626.66 186.414 623.681 193.292C620.701 200.17 622.317 226.993 622.317 226.993L611.212 293.236C611.212 293.236 606.181 327.396 598.411 347.801C590.744 367.884 582.206 377.299 581.943 377.598C585.381 372.936 604.118 281.145 604.118 281.145L610.307 165.378C610.307 165.378 611.212 154.378 612.129 144.974C613.046 135.57 631.611 122.732 631.611 122.732L649.512 97.2297C651.311 99.6411 650.108 103.844 647.369 107.966Z" fill="white"/>
<path d="M600.691 256.745C600.691 256.745 574.333 255.596 561.566 240.233C548.799 224.869 591.076 234.101 591.076 234.101L602.067 236.627L600.691 256.745Z" fill="#FFB0B1"/>
<path opacity="0.1" d="M723.786 432.576C722.375 437.58 722.147 442.844 723.121 447.951C694.367 449.995 663.608 442.21 663.608 442.21C657.878 447.492 642.785 455.277 642.785 455.277L634.556 353.083C629.296 339.304 627.233 267.113 627.233 267.113C627.233 267.113 627.703 263.336 628.379 257.675C628.379 257.537 628.379 257.388 628.437 257.25C630.488 241.439 634.556 211.756 636.55 207.749C639.301 202.237 628.093 187.574 628.093 187.574L633.193 143.998L633.811 138.739C644.561 133.928 652.801 118.564 652.801 118.564L659.127 107.461C666.003 103.04 666.359 146.363 666.359 146.363L659.482 248.661L682.265 242.357C682.265 242.357 727.671 419.509 723.786 432.576Z" fill="black"/>
<path d="M753.296 439.638C721.952 455.231 664.983 440.786 664.983 440.786C659.253 446.068 644.16 453.853 644.16 453.853L635.92 351.659C630.671 337.88 628.609 265.689 628.609 265.689C628.609 265.689 635.233 211.825 637.983 206.325C638.785 204.717 638.396 202.329 637.444 199.757C632.768 187.515 631.048 174.338 632.425 161.302L634.625 142.574L635.233 137.327C645.994 132.504 654.234 117.14 654.234 117.14L659.964 107.082L670.507 88.549L675.504 79.7764L676.352 80.5457L682.827 86.4247C682.827 86.4247 685.577 88.7212 689.703 92.166C698.676 99.7444 714.182 113.087 722.181 121.251C729.218 128.439 731.441 156.399 732.083 177.446C732.507 191.306 732.255 202.168 732.255 202.168C725.161 213.869 743.715 307.807 743.715 307.807C748.036 325.961 753.296 439.638 753.296 439.638Z" fill="white"/>
<path opacity="0.03" d="M693.13 116.911C693.13 116.911 671.619 157.938 674.117 173.531C676.615 189.124 683.721 206.773 680.294 210.895C679.117 212.457 677.595 213.724 675.847 214.599C674.1 215.473 672.174 215.931 670.221 215.936C666.783 216.165 657.614 222.584 657.614 223.273C657.614 223.962 649.145 223.962 641.57 227.177C633.995 230.392 622.81 232.218 622.81 232.218C622.81 232.218 601.035 231.529 599.007 233.596C596.978 235.663 594.893 248.029 599.236 257.893C603.579 267.756 608.404 275.117 612.049 276.46C615.693 277.803 638.82 270.041 657.58 268.204C676.34 266.367 696.705 251.474 696.705 251.474C696.705 251.474 719.133 243.436 723.064 229.921C726.995 216.407 718.262 142.126 718.262 142.126C718.262 142.126 711.661 107.507 693.13 116.911Z" fill="black"/>
<path opacity="0.03" d="M690.379 113.466C690.379 113.466 668.868 154.505 671.39 170.086C673.911 185.668 680.993 203.328 677.555 207.462C676.382 209.025 674.863 210.294 673.116 211.169C671.37 212.044 669.445 212.5 667.493 212.503C664.055 212.732 654.887 219.151 654.887 219.84C654.887 220.529 646.418 220.529 638.843 223.733C631.267 226.936 620.082 228.773 620.082 228.773C620.082 228.773 598.308 228.084 596.291 230.151C594.274 232.218 592.165 244.596 596.52 254.448C600.875 264.3 605.688 271.672 609.332 273.015C612.977 274.359 636.104 266.597 654.864 264.771C673.624 262.945 693.989 248.03 693.989 248.03C693.989 248.03 716.405 239.992 720.29 226.488C724.175 212.985 715.489 138.682 715.489 138.682C715.489 138.682 708.91 104.073 690.379 113.466Z" fill="black"/>
<path d="M692.453 114.844C692.453 114.844 670.943 155.882 673.464 171.464C675.985 187.046 683.068 204.706 679.641 208.828C678.468 210.395 676.947 211.668 675.199 212.544C673.45 213.421 671.523 213.879 669.567 213.88C666.129 214.11 656.961 220.529 656.961 221.206C656.961 221.884 648.504 221.895 640.917 225.11C633.33 228.325 622.156 230.151 622.156 230.151C622.156 230.151 600.382 229.462 598.354 231.529C596.325 233.596 594.239 245.974 598.583 255.826C602.926 265.678 607.751 273.05 611.395 274.393C615.04 275.737 638.166 267.974 656.927 266.137C675.687 264.3 696.052 249.407 696.052 249.407C696.052 249.407 718.48 241.369 722.411 227.855C726.341 214.34 717.666 140.059 717.666 140.059C717.666 140.059 710.973 105.497 692.453 114.844Z" fill="white"/>
<path opacity="0.1" d="M691.984 224.915C691.984 224.915 674.793 221.47 680.775 227.212C686.758 232.954 686.723 237.983 694.046 237.753C701.37 237.524 691.984 224.915 691.984 224.915Z" fill="black"/>
<path opacity="0.1" d="M721.035 348.444C721.035 348.444 713.265 353.715 728.129 365.864C742.993 378.013 721.035 348.444 721.035 348.444Z" fill="black"/>
<path opacity="0.1" d="M706.206 391.767C706.206 392.456 703.455 417.029 713.747 423.172C724.038 429.315 706.206 391.767 706.206 391.767Z" fill="black"/>
<path d="M542.806 199.183C534.509 199.47 516.585 202.008 525.879 219.381C534.096 234.756 547.906 224.479 555.676 216.682C553.78 209.413 549.174 203.15 542.806 199.183Z" fill="#FFB0B1"/>
<path d="M555.779 216.544L556.123 216.188L555.779 216.544Z" fill="#FFB0B1"/>
<path opacity="0.1" d="M689.703 92.8666C680.902 98.8949 673.521 103.982 672.077 105.038C668.135 107.966 660.617 125.155 655.769 133.928C651.907 140.99 639.358 142.804 634.625 143.252L635.233 138.004C645.994 133.182 654.234 117.818 654.234 117.818L675.504 80.454L682.827 87.1253C682.827 87.1253 685.577 89.4218 689.703 92.8666Z" fill="black"/>
<path d="M689.703 92.1775C680.902 98.2058 673.521 103.293 672.077 104.36C668.135 107.277 660.617 124.466 655.769 133.239C651.907 140.301 639.358 142.115 634.625 142.563L635.233 137.315C645.994 132.493 654.234 117.129 654.234 117.129L675.504 79.7649L682.827 86.4133C682.827 86.4133 685.577 88.6868 689.703 92.1775Z" fill="#DCE7FF"/>
<path d="M672.765 62.92C672.77 69.8129 670.683 76.5444 666.783 82.2221C662.176 88.9352 655.32 93.7712 647.458 95.8527C639.597 97.9342 631.252 97.1232 623.936 93.567C616.621 90.0108 610.82 83.9449 607.586 76.47C604.353 68.995 603.901 60.6064 606.312 52.826C608.723 45.0456 613.838 38.3891 620.729 34.0641C627.62 29.7392 635.829 28.0325 643.869 29.2536C651.908 30.4747 659.244 34.5428 664.546 40.7197C669.847 46.8966 672.763 54.7731 672.765 62.92Z" fill="#FFB0B1"/>
<path opacity="0.1" d="M732.083 177.458C727.429 174.59 723.639 170.51 721.115 165.654C719.202 161.865 717.93 157.49 714.663 154.803C711.718 152.392 707.787 151.806 704.12 150.727C692.064 147.156 681.956 136.133 681.578 123.548C681.394 117.623 683.239 111.709 682.403 105.842C681.927 102.521 680.609 99.3779 678.575 96.7131C677.565 95.4386 676.458 94.2447 675.263 93.142C673.659 91.6264 671.974 90.1566 670.507 88.549C669.583 87.5537 668.776 86.4557 668.1 85.2766C667.555 84.3116 667.114 83.2916 666.782 82.2337C664.49 75.2064 666.576 66.8701 664.055 59.7625L663.917 59.372C662.966 56.8459 661.029 54.3197 658.336 54.1245C655.643 53.9293 653.34 56.1684 650.773 57.1674C645.398 59.2572 639.599 55.6976 635.118 52.0692C630.637 48.4407 625.583 44.2955 619.887 45.0993C616.117 45.639 613.137 48.211 609.665 49.543C608.881 49.8471 608.072 50.0815 607.247 50.2435C610.185 42.9005 615.585 36.8122 622.517 33.0245C629.449 29.2368 637.481 27.9862 645.233 29.4875C652.986 30.9888 659.975 35.1483 664.999 41.2515C670.023 47.3546 672.769 55.0203 672.765 62.9316C672.769 65.3206 672.519 67.7032 672.02 70.0393C672.077 70.2 672.134 70.3493 672.203 70.5101C673.533 73.9548 675.034 77.4914 676.352 80.5457L682.827 86.4248C682.827 86.4248 685.577 88.7213 689.703 92.1661C698.676 99.7445 714.182 113.087 722.181 121.251C729.218 128.462 731.418 156.411 732.083 177.458Z" fill="black"/>
<path d="M609.264 28.5645C610.902 25.2231 611.716 21.4798 613.676 18.3106C616.552 13.7176 621.572 10.7781 626.729 8.99829C640.195 4.34788 668.651 -2.40383 677.154 8.99829C678.827 11.2948 680.214 13.8439 682.529 15.4285C684.294 16.6342 686.425 17.1509 688.362 18.058C693.783 20.6071 697.244 26.1646 699.089 31.837C700.934 37.5093 701.484 43.5951 702.836 49.4396C704.567 56.9377 707.604 64.0454 710.629 71.1071C714.194 79.4434 717.975 88.0897 724.852 93.9803C734.237 102.018 736.312 113.397 745.022 122.216C755.336 132.688 755.003 149.969 749.686 163.69C748.987 165.493 748.196 167.376 748.471 169.294C748.746 171.212 750.167 172.957 751.508 174.484L757.146 180.857C743.807 184.083 728.714 177.102 722.502 164.85C720.588 161.061 719.316 156.698 716.039 153.999C713.105 151.588 709.163 151.014 705.507 149.934C693.451 146.352 683.343 135.317 682.964 122.732C682.781 116.819 684.626 110.905 683.79 105.049C683.324 101.706 682.001 98.5413 679.95 95.8634C676.799 91.7412 672.043 88.9739 669.476 84.3809C665.132 76.6991 668.433 66.7208 665.304 58.4764C664.342 55.9502 662.416 53.4241 659.723 53.2289C657.03 53.0337 654.726 55.2728 652.148 56.2717C646.784 58.3616 640.986 54.8135 636.505 51.1735C632.024 47.5336 626.97 43.3999 621.263 44.2151C617.492 44.7433 614.524 47.3154 611.051 48.6588C608.484 49.6463 603.281 50.5305 601.035 48.3603C596.291 43.9855 607.281 32.6522 609.264 28.5645Z" fill="#591D4B"/>
<path opacity="0.1" d="M725.688 161.062C723.763 157.273 722.502 152.909 719.225 150.222C716.291 147.811 712.348 147.225 708.681 146.146C696.636 142.575 686.529 131.54 686.139 118.955C685.956 113.042 687.801 107.117 686.975 101.261C686.495 97.9393 685.174 94.7964 683.136 92.1323C679.973 88.0101 675.217 85.2428 672.662 80.6498C668.318 72.9795 671.619 63.0012 668.479 54.7453C667.527 52.2306 665.591 49.7045 662.909 49.4978C660.227 49.2912 657.901 51.5532 655.334 52.5522C649.97 54.642 644.16 51.0824 639.691 47.454C635.221 43.8255 630.144 39.6803 624.448 40.4841C620.678 41.0237 617.698 43.5958 614.237 44.9278C611.67 45.9153 606.456 46.8109 604.21 44.6407C599.488 40.0477 610.478 28.7375 612.45 24.6727C614.088 21.3198 614.902 17.588 616.873 14.4188C616.976 14.2466 617.091 14.0743 617.206 13.9021C615.731 15.1259 614.459 16.5752 613.435 18.1965C611.475 21.3657 610.662 25.086 609.023 28.4504C607.04 32.5152 596.05 43.8599 600.783 48.4185C603.075 50.6002 608.232 49.7045 610.799 48.717C614.237 47.3736 617.24 44.8015 621.01 44.2733C626.74 43.458 631.783 47.6032 636.253 51.2317C640.722 54.8601 646.567 58.4197 651.907 56.3299C654.474 55.3309 656.72 53.0804 659.471 53.287C662.221 53.4937 664.055 56.0084 665.052 58.5346C668.181 66.779 664.88 76.7573 669.224 84.4391C671.791 88.9517 676.547 91.7764 679.698 95.9216C681.749 98.5995 683.072 101.764 683.537 105.108C684.374 110.964 682.529 116.877 682.712 122.791C683.09 135.421 693.198 146.41 705.255 149.993C708.887 151.072 712.853 151.646 715.786 154.057C719.076 156.756 720.371 161.119 722.25 164.908C728.462 177.16 743.555 184.142 756.894 180.915L754.236 177.907C742.672 178.079 730.971 171.488 725.688 161.062Z" fill="black"/>
<path opacity="0.1" d="M646.681 108.655C645.18 110.951 640.882 122.709 637.295 132.975C633.937 131.666 630.889 123.318 630.889 123.318L648.79 97.8038C650.624 100.33 649.42 104.521 646.681 108.655Z" fill="black"/>
<path d="M647.369 107.966C645.868 110.263 641.57 122.021 637.983 132.286C634.625 130.988 631.577 122.629 631.577 122.629L649.478 97.1266C651.311 99.6413 650.108 103.844 647.369 107.966Z" fill="#DCE7FF"/>
<path d="M543.287 225.271L533.363 193.912C533.245 193.545 533.201 193.159 533.233 192.774C533.265 192.39 533.373 192.016 533.55 191.674C533.726 191.331 533.969 191.027 534.263 190.779C534.558 190.53 534.898 190.343 535.265 190.227C536.004 189.996 536.803 190.066 537.49 190.423C538.177 190.78 538.695 191.395 538.932 192.133L548.857 223.457L547.871 230.013L543.287 225.271Z" fill="#BE8B87"/>
<path opacity="0.1" d="M534.302 191.157C535.042 190.922 535.845 190.991 536.535 191.348C537.224 191.706 537.744 192.322 537.981 193.063L547.906 224.387L547.161 229.302L547.883 230.059L548.868 223.503L538.886 192.179C538.65 191.441 538.131 190.826 537.444 190.469C536.758 190.112 535.958 190.042 535.219 190.273C534.598 190.475 534.061 190.879 533.695 191.421C533.89 191.316 534.093 191.228 534.302 191.157Z" fill="white"/>
<path d="M543.287 225.271L548.857 223.503L548.043 228.877L547.871 230.06L546.244 228.36L543.287 225.271Z" fill="#EFC8C4"/>
<path d="M546.244 228.36C546.341 228.237 546.462 228.136 546.599 228.061C546.68 228.01 546.773 227.983 546.868 227.983C546.964 227.983 547.057 228.01 547.138 228.061C547.216 228.156 547.281 228.26 547.333 228.371C547.408 228.498 547.511 228.606 547.634 228.688C547.757 228.769 547.897 228.822 548.043 228.842L547.871 229.991L546.244 228.36Z" fill="#727A9C"/>
<path d="M533.305 205.05C533.305 205.05 553.212 204.936 548.524 213.421C543.837 221.907 536.514 222.929 536.514 222.929L533.305 205.05Z" fill="#FFB0B1"/>
<defs>
<linearGradient id="paint0_linear" x1="255411" y1="532877" x2="255411" y2="170192" gradientUnits="userSpaceOnUse">
<stop stop-color="#808080" stop-opacity="0.25"/>
<stop offset="0.54" stop-color="#808080" stop-opacity="0.12"/>
<stop offset="1" stop-color="#808080" stop-opacity="0.1"/>
</linearGradient>
</defs>
</svg>
