<svg width="80" height="80" viewBox="0 0 80 80" fill="none" xmlns="http://www.w3.org/2000/svg">
<path d="M40.0007 73.3334C34.9609 73.3476 29.9847 72.2073 25.454 70C23.7958 69.1934 22.2071 68.2513 20.704 67.1833L20.2473 66.85C16.1134 63.7987 12.7336 59.8407 10.3673 55.28C7.91978 50.5595 6.65035 45.3172 6.66716 40C6.66716 21.5905 21.5912 6.66663 40.0007 6.66663C58.4102 6.66663 73.3342 21.5905 73.3342 40C73.3508 45.3146 72.0825 50.5545 69.6373 55.2733C67.2744 59.8314 63.8993 63.788 59.7707 66.84C58.2132 67.98 56.5604 68.9837 54.8307 69.84L54.564 69.9733C50.0304 72.1923 45.0482 73.3418 40.0007 73.3334ZM40.0007 56.6666C35.0056 56.6569 30.4262 59.4467 28.144 63.89C35.6153 67.5906 44.386 67.5906 51.8573 63.89V63.8733C49.5723 59.4349 44.9927 56.6514 40.0007 56.6666ZM40.0007 50C47.221 50.0094 53.8787 53.9003 57.4307 60.1866L57.4807 60.1433L57.5273 60.1033L57.4707 60.1533L57.4373 60.18C65.8673 52.897 68.8816 41.1411 64.9962 30.7003C61.1107 20.2595 51.1443 13.3343 40.004 13.3343C28.8637 13.3343 18.8973 20.2595 15.0118 30.7003C11.1264 41.1411 14.1407 52.897 22.5707 60.18C26.1249 53.8968 32.7819 50.0087 40.0007 50ZM40.0007 46.6666C32.6369 46.6666 26.6673 40.6971 26.6673 33.3333C26.6673 25.9695 32.6369 20 40.0007 20C47.3645 20 53.334 25.9695 53.334 33.3333C53.334 36.8695 51.9292 40.2609 49.4287 42.7614C46.9283 45.2619 43.5369 46.6666 40.0007 46.6666ZM40.0007 26.6666C36.3188 26.6666 33.334 29.6514 33.334 33.3333C33.334 37.0152 36.3188 40 40.0007 40C43.6826 40 46.6673 37.0152 46.6673 33.3333C46.6673 29.6514 43.6826 26.6666 40.0007 26.6666Z" fill="#2E3A59"/>
</svg>
