<svg width="80" height="80" viewBox="0 0 80 80" fill="none" xmlns="http://www.w3.org/2000/svg">
<path d="M39.9997 56.6666C43.6663 56.6666 46.6663 53.6666 46.6663 50C46.6663 46.3333 43.6663 43.3333 39.9997 43.3333C36.333 43.3333 33.333 46.3333 33.333 50C33.333 53.6666 36.333 56.6666 39.9997 56.6666ZM59.9997 26.6666H56.6663V20C56.6663 10.8 49.1997 3.33331 39.9997 3.33331C30.7997 3.33331 23.333 10.8 23.333 20V26.6666H19.9997C16.333 26.6666 13.333 29.6666 13.333 33.3333V66.6666C13.333 70.3333 16.333 73.3333 19.9997 73.3333H59.9997C63.6663 73.3333 66.6663 70.3333 66.6663 66.6666V33.3333C66.6663 29.6666 63.6663 26.6666 59.9997 26.6666ZM29.6663 20C29.6663 14.3 34.2997 9.66665 39.9997 9.66665C45.6997 9.66665 50.333 14.3 50.333 20V26.6666H29.6663V20ZM59.9997 66.6666H19.9997V33.3333H59.9997V66.6666Z" fill="#2E3A59"/>
</svg>
